<svg width="25" height="24" viewBox="0 0 25 24" fill="none" xmlns="http://www.w3.org/2000/svg">
<path d="M16.25 11.25H13.25V8.25C13.25 8.05109 13.171 7.86032 13.0303 7.71967C12.8897 7.57902 12.6989 7.5 12.5 7.5C12.3011 7.5 12.1103 7.57902 11.9697 7.71967C11.829 7.86032 11.75 8.05109 11.75 8.25V11.25H8.75C8.55109 11.25 8.36032 11.329 8.21967 11.4697C8.07902 11.6103 8 11.8011 8 12C8 12.1989 8.07902 12.3897 8.21967 12.5303C8.36032 12.671 8.55109 12.75 8.75 12.75H11.75V15.75C11.75 15.9489 11.829 16.1397 11.9697 16.2803C12.1103 16.421 12.3011 16.5 12.5 16.5C12.6989 16.5 12.8897 16.421 13.0303 16.2803C13.171 16.1397 13.25 15.9489 13.25 15.75V12.75H16.25C16.4489 12.75 16.6397 12.671 16.7803 12.5303C16.921 12.3897 17 12.1989 17 12C17 11.8011 16.921 11.6103 16.7803 11.4697C16.6397 11.329 16.4489 11.25 16.25 11.25Z" fill="#B5AEA8"/>
<path d="M17.75 1.5H7.25C4.355 1.5 2 3.855 2 6.75V17.25C2 20.145 4.355 22.5 7.25 22.5H17.75C20.645 22.5 23 20.145 23 17.25V6.75C23 3.855 20.645 1.5 17.75 1.5ZM21.5 17.25C21.5 19.3177 19.8177 21 17.75 21H7.25C5.18225 21 3.5 19.3177 3.5 17.25V6.75C3.5 4.68225 5.18225 3 7.25 3H17.75C19.8177 3 21.5 4.68225 21.5 6.75V17.25Z" fill="#B5AEA8"/>
</svg>
