<svg width="24" height="24" viewBox="0 0 24 24" fill="none" xmlns="http://www.w3.org/2000/svg">
<g clip-path="url(#clip0_2366_1485)">
<path d="M16.9688 0H7.03125C3.14813 0 0 3.14813 0 7.03125V16.9688C0 20.8519 3.14813 24 7.03125 24H16.9688C20.8519 24 24 20.8519 24 16.9688V7.03125C24 3.14813 20.8519 0 16.9688 0ZM18.7969 12C18.7969 12.6473 18.2723 13.1719 17.625 13.1719H13.1719V17.625C13.1719 18.2723 12.6473 18.7969 12 18.7969C11.3527 18.7969 10.8281 18.2723 10.8281 17.625V13.1719H6.375C5.72766 13.1719 5.20312 12.6473 5.20312 12C5.20312 11.3527 5.72766 10.8281 6.375 10.8281H10.8281V6.375C10.8281 5.72766 11.3527 5.20312 12 5.20312C12.6473 5.20312 13.1719 5.72766 13.1719 6.375V10.8281H17.625C18.2723 10.8281 18.7969 11.3527 18.7969 12Z" fill="black"/>
</g>
<defs>
<clipPath id="clip0_2366_1485">
<rect width="24" height="24" fill="white"/>
</clipPath>
</defs>
</svg>
