<svg width="20" height="21" viewBox="0 0 20 21" fill="none" xmlns="http://www.w3.org/2000/svg">
<path d="M9.99984 18.4316C14.6022 18.4316 18.3332 14.7006 18.3332 10.0982C18.3332 5.49585 14.6022 1.76489 9.99984 1.76489C5.39746 1.76489 1.6665 5.49585 1.6665 10.0982C1.6665 14.7006 5.39746 18.4316 9.99984 18.4316Z" fill="#F43F00"/>
<path d="M7.57484 7.59823C7.77076 7.04128 8.15746 6.57165 8.66647 6.2725C9.17547 5.97336 9.77392 5.86401 10.3558 5.96382C10.9377 6.06363 11.4655 6.36616 11.8457 6.81783C12.226 7.2695 12.4341 7.84116 12.4332 8.43156C12.4332 10.0982 9.93317 10.9316 9.93317 10.9316" fill="#F43F00"/>
<path d="M7.57484 7.59823C7.77076 7.04128 8.15746 6.57165 8.66647 6.2725C9.17547 5.97336 9.77392 5.86401 10.3558 5.96382C10.9377 6.06363 11.4655 6.36616 11.8457 6.81783C12.226 7.2695 12.4341 7.84116 12.4332 8.43156C12.4332 10.0982 9.93317 10.9316 9.93317 10.9316M9.99984 14.2649H10.0082M18.3332 10.0982C18.3332 14.7006 14.6022 18.4316 9.99984 18.4316C5.39746 18.4316 1.6665 14.7006 1.6665 10.0982C1.6665 5.49585 5.39746 1.76489 9.99984 1.76489C14.6022 1.76489 18.3332 5.49585 18.3332 10.0982Z" stroke="#F5E2D1" stroke-width="1.5" stroke-linecap="round" stroke-linejoin="round"/>
</svg>
