<svg width="24" height="24" viewBox="0 0 24 24" fill="none" xmlns="http://www.w3.org/2000/svg">
<path d="M22.2426 15.75C22.4189 15.6203 22.5579 15.4464 22.6456 15.2458C22.7333 15.0453 22.7665 14.8251 22.7419 14.6076C22.7173 14.3901 22.6357 14.1829 22.5055 14.007C22.3753 13.831 22.2009 13.6926 22.0001 13.6055V11.895L21.0001 12.32V13.6055C20.7991 13.6925 20.6246 13.831 20.4943 14.007C20.364 14.183 20.2824 14.3902 20.2578 14.6078C20.2332 14.8254 20.2664 15.0457 20.3542 15.2463C20.4419 15.4469 20.5811 15.6209 20.7576 15.7505C20.6006 15.8658 20.4729 16.0164 20.3847 16.1901C20.2966 16.3638 20.2505 16.5557 20.2501 16.7505V18C20.2501 18.1326 20.3027 18.2598 20.3965 18.3536C20.4903 18.4473 20.6174 18.5 20.7501 18.5H22.2501C22.3827 18.5 22.5098 18.4473 22.6036 18.3536C22.6974 18.2598 22.7501 18.1326 22.7501 18V16.75C22.7497 16.5552 22.7035 16.3633 22.6154 16.1896C22.5272 16.0159 22.3995 15.8653 22.2426 15.75ZM19.5001 12.955V16.655C19.5027 17.0852 19.3935 17.5086 19.1832 17.8838C18.9728 18.259 18.6685 18.573 18.3001 18.795C16.3882 19.9116 14.214 20.5 12.0001 20.5C9.78607 20.5 7.61186 19.9116 5.70005 18.795C5.33165 18.573 5.02732 18.259 4.81694 17.8838C4.60656 17.5086 4.49735 17.0852 4.50005 16.655V12.955L10.6351 15.55C11.0672 15.7315 11.5313 15.825 12.0001 15.825C12.4688 15.825 12.9329 15.7315 13.3651 15.55L19.5001 12.955Z" fill="black"/>
<path d="M23.0181 7.61848L12.9741 3.36848C12.6655 3.23864 12.334 3.17175 11.9991 3.17175C11.6643 3.17175 11.3328 3.23864 11.0241 3.36848L0.980109 7.61848C0.708629 7.73331 0.476999 7.92558 0.31415 8.17128C0.151301 8.41698 0.0644531 8.70521 0.0644531 8.99998C0.0644531 9.29474 0.151301 9.58298 0.31415 9.82868C0.476999 10.0744 0.708629 10.2666 0.980109 10.3815L11.0241 14.6315C11.3327 14.7615 11.6642 14.8284 11.9991 14.8284C12.334 14.8284 12.6655 14.7615 12.9741 14.6315L23.0181 10.3815C23.2896 10.2666 23.5212 10.0744 23.6841 9.82868C23.8469 9.58298 23.9338 9.29474 23.9338 8.99998C23.9338 8.70521 23.8469 8.41698 23.6841 8.17128C23.5212 7.92558 23.2896 7.73331 23.0181 7.61848Z" fill="black"/>
</svg>
