<svg width="26" height="25" viewBox="0 0 26 25" fill="none" xmlns="http://www.w3.org/2000/svg">
<rect x="1" y="0.5" width="24" height="24" rx="12" fill="#F3F3F3"/>
<rect x="1" y="0.5" width="24" height="24" rx="12" stroke="#3083F9"/>
<path d="M7 18.5001H19M7 18.5001V15.5001L15.1515 7.3486L15.1528 7.34732C15.4489 7.05116 15.5973 6.90282 15.7683 6.84725C15.9189 6.79831 16.0812 6.79831 16.2318 6.84725C16.4027 6.90278 16.5509 7.05095 16.8466 7.34669L18.1515 8.65154C18.4485 8.94855 18.597 9.09713 18.6527 9.26837C18.7016 9.41901 18.7016 9.58127 18.6527 9.7319C18.5971 9.90302 18.4487 10.0514 18.1521 10.348L18.1515 10.3486L10 18.5001L7 18.5001Z" stroke="#3083F9" stroke-linecap="round" stroke-linejoin="round"/>
</svg>
