<svg width="24" height="24" viewBox="0 0 24 24" fill="none" xmlns="http://www.w3.org/2000/svg">
<path d="M19.9998 12.1778C19.9998 11.52 19.9454 11.04 19.8275 10.5422H12.1631V13.5111H16.6619C16.5713 14.2489 16.0814 15.36 14.993 16.1067L14.9777 16.206L17.4011 18.0458L17.5689 18.0622C19.1109 16.6667 19.9998 14.6134 19.9998 12.1778Z" fill="#4285F4"/>
<path d="M12.1631 20C14.3672 20 16.2175 19.2889 17.569 18.0623L14.9931 16.1066C14.3037 16.5778 13.3785 16.9067 12.1631 16.9067C10.0044 16.9067 8.17223 15.5112 7.51911 13.5823L7.42338 13.5902L4.90356 15.5014L4.87061 15.5912C6.21299 18.2044 8.97036 20 12.1631 20Z" fill="#34A853"/>
<path d="M7.51923 13.5823C7.3469 13.0845 7.24716 12.5511 7.24716 12.0001C7.24716 11.4489 7.3469 10.9156 7.51017 10.4178L7.50561 10.3118L4.9542 8.37L4.87073 8.40891C4.31746 9.49337 4 10.7112 4 12.0001C4 13.289 4.31746 14.5067 4.87073 15.5912L7.51923 13.5823Z" fill="#FBBC05"/>
<path d="M12.1631 7.09332C13.696 7.09332 14.7299 7.7422 15.3196 8.28447L17.6234 6.08C16.2085 4.79112 14.3672 4 12.1631 4C8.97036 4 6.21299 5.79554 4.87061 8.40887L7.51005 10.4178C8.17223 8.4889 10.0044 7.09332 12.1631 7.09332Z" fill="#EB4335"/>
</svg>
