<svg width="25" height="24" viewBox="0 0 25 24" fill="none" xmlns="http://www.w3.org/2000/svg">
<path fill-rule="evenodd" clip-rule="evenodd" d="M10.524 2.74604C11.1061 2.34791 11.7948 2.13489 12.5 2.13489C13.2052 2.13489 13.8939 2.34791 14.476 2.74604L20.976 7.19404C21.4456 7.51529 21.8299 7.94619 22.0954 8.44942C22.361 8.95265 22.4999 9.51304 22.5 10.082V18.5C22.5 19.4283 22.1313 20.3185 21.4749 20.9749C20.8185 21.6313 19.9283 22 19 22H6C5.07174 22 4.1815 21.6313 3.52513 20.9749C2.86875 20.3185 2.5 19.4283 2.5 18.5V10.082C2.50014 9.51304 2.639 8.95265 2.90455 8.44942C3.17011 7.94619 3.55435 7.51529 4.024 7.19404L10.524 2.74604ZM10 17.5C9.86739 17.5 9.74021 17.5527 9.64645 17.6465C9.55268 17.7403 9.5 17.8674 9.5 18C9.5 18.1327 9.55268 18.2598 9.64645 18.3536C9.74021 18.4474 9.86739 18.5 10 18.5H15C15.1326 18.5 15.2598 18.4474 15.3536 18.3536C15.4473 18.2598 15.5 18.1327 15.5 18C15.5 17.8674 15.4473 17.7403 15.3536 17.6465C15.2598 17.5527 15.1326 17.5 15 17.5H10Z" fill="black"/>
</svg>
