<svg width="25" height="24" viewBox="0 0 25 24" fill="none" xmlns="http://www.w3.org/2000/svg">
<path d="M15 17.2998C15.1857 17.2998 15.3638 17.3736 15.4951 17.5049L15.582 17.6113C15.6583 17.7256 15.7002 17.8606 15.7002 18C15.7002 18.1857 15.6264 18.3638 15.4951 18.4951C15.3638 18.6264 15.1857 18.7002 15 18.7002H10C9.86061 18.7002 9.72557 18.6583 9.61133 18.582L9.50488 18.4951C9.37361 18.3638 9.2998 18.1857 9.2998 18C9.2998 17.8143 9.37361 17.6362 9.50488 17.5049L9.61133 17.418C9.72557 17.3417 9.86061 17.2998 10 17.2998H15Z" fill="#B5AEA8" stroke="#B5AEA8" stroke-width="0.4"/>
<path d="M12.5 1.6217C13.332 1.6217 14.14 1.90204 14.793 2.4176L21.293 7.55042L21.4531 7.6842C21.8182 8.00759 22.1168 8.40028 22.3301 8.84045C22.5737 9.34331 22.7002 9.89497 22.7002 10.4537V18.4996C22.7002 19.4808 22.31 20.422 21.6162 21.1158C20.9223 21.8097 19.9813 22.1998 19 22.1998H6C5.0187 22.1998 4.07767 21.8097 3.38379 21.1158C2.69002 20.422 2.2998 19.4808 2.2998 18.4996V10.4537L2.30566 10.2448C2.33322 9.75793 2.45672 9.2805 2.66992 8.84045L2.7666 8.65491C3.00367 8.22882 3.3233 7.85346 3.70703 7.55042L10.207 2.4176L10.459 2.23596C11.0625 1.8368 11.7719 1.6217 12.5 1.6217ZM12.5 3.02209C12.0475 3.02209 11.6066 3.15587 11.2314 3.40393L11.0752 3.51721L4.57422 8.64905C4.30176 8.86435 4.08105 9.13827 3.92969 9.45081C3.77835 9.76336 3.70016 10.1065 3.7002 10.4537V18.4996C3.7002 19.1096 3.94269 19.6953 4.37402 20.1266L4.54199 20.2789C4.95132 20.6144 5.46611 20.8004 6 20.8004H19C19.6099 20.8004 20.1947 20.5577 20.626 20.1266C21.0573 19.6953 21.2998 19.1096 21.2998 18.4996V10.4537L21.2852 10.1949C21.2559 9.93722 21.183 9.68534 21.0693 9.45081C20.9556 9.21635 20.8033 9.00349 20.6191 8.82092L20.4248 8.64905L13.9248 3.51721C13.5189 3.19683 13.0171 3.02209 12.5 3.02209Z" fill="#B5AEA8" stroke="#B5AEA8" stroke-width="0.4"/>
</svg>
