<svg width="29" height="28" viewBox="0 0 29 28" fill="none" xmlns="http://www.w3.org/2000/svg">
<path d="M25.3866 19.5196C25.2849 19.4178 25.1438 19.3594 25 19.3594C24.8562 19.3594 24.7151 19.4178 24.6134 19.5196C24.5116 19.6214 24.4531 19.7618 24.4531 19.9062C24.4531 20.0501 24.5116 20.1912 24.6134 20.2928C24.7151 20.3946 24.8562 20.4531 25 20.4531C25.1438 20.4531 25.2849 20.3946 25.3866 20.2928C25.4884 20.1912 25.5469 20.0501 25.5469 19.9062C25.5469 19.7624 25.4884 19.6213 25.3866 19.5196Z" fill="#161312"/>
<path d="M26.0314 25.0628H23.9688V20.7034C23.9688 20.4445 23.7589 20.2346 23.5001 20.2346C23.2412 20.2346 23.0313 20.4445 23.0313 20.7034V25.0628H8.21859V20.6565C8.21859 20.3976 8.00868 20.1877 7.74983 20.1877C7.49099 20.1877 7.28108 20.3976 7.28108 20.6565V25.0628H5.96856V12.7346L14.4999 6.07417L23.0313 12.7346V17.1877C23.0313 17.4465 23.2412 17.6564 23.5001 17.6564C23.7589 17.6564 23.9688 17.4465 23.9688 17.1877V13.4665L24.0508 13.5305C24.1359 13.597 24.2377 13.6298 24.3391 13.6298C24.4596 13.6298 24.5797 13.5834 24.6707 13.4925L26.3614 11.8017C26.4563 11.7067 26.506 11.5755 26.4978 11.4415C26.4896 11.3074 26.4243 11.1833 26.3184 11.1007L23.5001 8.90044V4.20312C23.5001 3.94423 23.2902 3.73437 23.0313 3.73437H20.3145C20.0556 3.73437 19.8457 3.94423 19.8457 4.20312V6.04749L14.7884 2.09925C14.6189 1.96692 14.381 1.96692 14.2115 2.09925L2.68145 11.1007C2.57555 11.1833 2.51026 11.3074 2.50201 11.4415C2.4938 11.5755 2.54349 11.7067 2.63841 11.8017L4.32917 13.4925C4.49652 13.6598 4.76249 13.6762 4.94911 13.5305L5.03104 13.4665V25.0628H2.96851C2.70967 25.0628 2.49976 25.2727 2.49976 25.5316C2.49976 25.7904 2.70967 26.0003 2.96851 26.0003H26.0314C26.2902 26.0003 26.5001 25.7904 26.5001 25.5316C26.5001 25.2727 26.2902 25.0628 26.0314 25.0628ZM20.7832 4.67188H22.5626V8.16853L20.7832 6.77941V4.67188ZM4.69898 12.5364L3.67615 11.5135L14.4999 3.06339L25.3237 11.5135L24.3009 12.5364L14.7884 5.10998C14.7036 5.04379 14.6018 5.0107 14.4999 5.0107C14.3981 5.0107 14.2962 5.04379 14.2115 5.10998L4.69898 12.5364Z" fill="#161312"/>
<path d="M19.0001 12.2188H10C9.74116 12.2188 9.53125 12.4286 9.53125 12.6875V21.6876C9.53125 21.9465 9.74116 22.1564 10 22.1564H19.0001C19.259 22.1564 19.4689 21.9465 19.4689 21.6876V12.6875C19.4689 12.4286 19.259 12.2188 19.0001 12.2188ZM14.0313 21.2189H10.4688V17.6563H14.0313V21.2189ZM14.0313 16.7188H10.4688V13.1563H14.0313V16.7188ZM18.5314 21.2189H14.9688V17.6563H18.5314V21.2189ZM18.5314 16.7188H14.9688V13.1563H18.5314V16.7188Z" fill="#161312"/>
<path d="M6.625 19.0586C6.32302 19.0586 6.07812 19.3034 6.07812 19.6055V19.6143C6.07812 19.9163 6.32302 20.1611 6.625 20.1611C6.92698 20.1611 7.17188 19.9163 7.17188 19.6143V19.6055C7.17188 19.3035 6.92698 19.0586 6.625 19.0586Z" fill="#161312"/>
</svg>
