<svg width="29" height="28" viewBox="0 0 29 28" fill="none" xmlns="http://www.w3.org/2000/svg">
<path d="M25 7.8749H22.375C22.1332 7.8749 21.9375 8.07079 21.9375 8.3124V10.9374C21.9375 11.179 22.1332 11.3749 22.375 11.3749H25C25.2418 11.3749 25.4375 11.179 25.4375 10.9374V8.3124C25.4375 8.07079 25.2418 7.8749 25 7.8749ZM24.5625 10.4999H22.8125V8.7499H24.5625V10.4999ZM20.625 7.8749H18C17.7582 7.8749 17.5625 8.07079 17.5625 8.3124V10.9374C17.5625 11.179 17.7582 11.3749 18 11.3749H20.625C20.8668 11.3749 21.0625 11.179 21.0625 10.9374V8.3124C21.0625 8.07079 20.8668 7.8749 20.625 7.8749ZM20.1875 10.4999H18.4375V8.7499H20.1875V10.4999ZM25 12.2499H22.375C22.1332 12.2499 21.9375 12.4458 21.9375 12.6874V15.3124C21.9375 15.5542 22.1332 15.7499 22.375 15.7499H25C25.2418 15.7499 25.4375 15.5542 25.4375 15.3124V12.6874C25.4375 12.4458 25.2418 12.2499 25 12.2499ZM24.5625 14.8749H22.8125V13.1249H24.5625V14.8749ZM20.625 12.2499H18C17.7582 12.2499 17.5625 12.4458 17.5625 12.6874V15.3124C17.5625 15.5542 17.7582 15.7499 18 15.7499H20.625C20.8668 15.7499 21.0625 15.5542 21.0625 15.3124V12.6874C21.0625 12.4458 20.8668 12.2499 20.625 12.2499ZM20.1875 14.8749H18.4375V13.1249H20.1875V14.8749ZM25 16.6249H22.375C22.1332 16.6249 21.9375 16.8206 21.9375 17.0624V19.6874C21.9375 19.9292 22.1332 20.1249 22.375 20.1249H25C25.2418 20.1249 25.4375 19.9292 25.4375 19.6874V17.0624C25.4375 16.8206 25.2418 16.6249 25 16.6249ZM24.5625 19.2499H22.8125V17.4999H24.5625V19.2499ZM20.625 16.6249H18C17.7582 16.6249 17.5625 16.8206 17.5625 17.0624V19.6874C17.5625 19.9292 17.7582 20.1249 18 20.1249H20.625C20.8668 20.1249 21.0625 19.9292 21.0625 19.6874V17.0624C21.0625 16.8206 20.8668 16.6249 20.625 16.6249ZM20.1875 19.2499H18.4375V17.4999H20.1875V19.2499ZM27.3708 7.04006L15.9958 1.79006C15.8604 1.72768 15.7023 1.73879 15.5767 1.8189C15.451 1.89922 15.375 2.03829 15.375 2.1874V8.80122L8.75824 9.62832C8.53928 9.65566 8.375 9.84173 8.375 10.0624V17.4999C8.375 17.5139 8.3817 17.5258 8.38298 17.5395C7.83768 18.0927 7.5 18.8512 7.5 19.6874C7.5 20.5236 7.83768 21.2821 8.38298 21.8353C8.3817 21.849 8.375 21.8609 8.375 21.8749V25.3749H4.4375V24.2965L5.55518 23.5514C5.7562 23.4173 5.81046 23.146 5.67651 22.9447C5.54214 22.7435 5.27084 22.6892 5.06982 22.8234L4.4375 23.2449V22.7104C5.67699 22.5011 6.625 21.4231 6.625 20.1249C6.625 18.6774 5.44751 17.4999 4 17.4999C2.55249 17.4999 1.375 18.6774 1.375 20.1249C1.375 21.4231 2.32301 22.5011 3.5625 22.7104V23.2449L2.93018 22.8234C2.72852 22.6892 2.45743 22.7435 2.32349 22.9447C2.18954 23.146 2.2438 23.4173 2.44482 23.5514L3.5625 24.2965V25.3749H1.8125C1.57089 25.3749 1.375 25.5706 1.375 25.8124C1.375 26.0542 1.57089 26.2499 1.8125 26.2499H8.8125H15.8125H18.875H24.125H27.1875C27.4293 26.2499 27.625 26.0542 27.625 25.8124V7.4374C27.625 7.26672 27.5259 7.11163 27.3708 7.04006ZM2.25 20.1249C2.25 19.1598 3.03506 18.3749 4 18.3749C4.96494 18.3749 5.75 19.1598 5.75 20.1249C5.75 20.9381 5.19012 21.6171 4.4375 21.8128V21.4374C4.4375 21.1956 4.24161 20.9999 4 20.9999C3.75839 20.9999 3.5625 21.1956 3.5625 21.4374V21.8128C2.80988 21.6171 2.25 20.9381 2.25 20.1249ZM15.375 13.5624H11.875V11.8124H15.375V13.5624ZM15.375 9.68295V10.9374H11.4375C11.1959 10.9374 11 11.1333 11 11.3749V13.9999C11 14.2415 11.1959 14.4374 11.4375 14.4374H15.375V25.3749H11V22.7149C12.4816 22.5015 13.625 21.227 13.625 19.6874C13.625 17.9989 12.2512 16.6249 10.5625 16.6249C10.0924 16.6249 9.64846 16.7345 9.25 16.9246V10.4486L15.375 9.68295ZM10.5625 17.4999C11.7686 17.4999 12.75 18.4813 12.75 19.6874C12.75 20.7437 11.9972 21.6274 11 21.8307V21.4374C11 21.1956 10.8041 20.9999 10.5625 20.9999C10.3209 20.9999 10.125 21.1956 10.125 21.4374V21.8307C9.12781 21.6274 8.375 20.7437 8.375 19.6874C8.375 18.4813 9.35638 17.4999 10.5625 17.4999ZM9.25 22.4502C9.52224 22.58 9.81594 22.6704 10.125 22.7149V25.3749H9.25V22.4502ZM19.3125 25.3749V21.8749H21.0625V25.3749H19.3125ZM21.9375 25.3749V21.8749H23.6875V25.3749H21.9375ZM24.5625 25.3749V21.4374C24.5625 21.1956 24.3668 20.9999 24.125 20.9999H18.875C18.6332 20.9999 18.4375 21.1956 18.4375 21.4374V25.3749H16.25V13.9999V11.3749V2.87121L26.75 7.71725V25.3749H24.5625Z" fill="#161312"/>
</svg>
