<svg width="29" height="28" viewBox="0 0 29 28" fill="none" xmlns="http://www.w3.org/2000/svg">
<path d="M5.70005 22H8.90005C9.00614 22 9.10788 21.9579 9.18289 21.8828C9.25791 21.8078 9.30005 21.7061 9.30005 21.6V18.4C9.30005 18.2939 9.25791 18.1922 9.18289 18.1172C9.10788 18.0421 9.00614 18 8.90005 18H5.70005C5.59396 18 5.49222 18.0421 5.41721 18.1172C5.34219 18.1922 5.30005 18.2939 5.30005 18.4V21.6C5.30005 21.7061 5.34219 21.8078 5.41721 21.8828C5.49222 21.9579 5.59396 22 5.70005 22ZM6.10005 18.8H8.50005V21.2H6.10005V18.8Z" fill="#161312"/>
<path d="M11.7 9.2002H7.70005C7.59396 9.2002 7.49222 9.24234 7.41721 9.31735C7.34219 9.39237 7.30005 9.49411 7.30005 9.6002V12.0002C7.30005 12.1063 7.34219 12.208 7.41721 12.283C7.49222 12.3581 7.59396 12.4002 7.70005 12.4002H11.7C11.8061 12.4002 11.9079 12.3581 11.9829 12.283C12.0579 12.208 12.1 12.1063 12.1 12.0002V9.6002C12.1 9.49411 12.0579 9.39237 11.9829 9.31735C11.9079 9.24234 11.8061 9.2002 11.7 9.2002ZM11.3 11.6002H8.10005V10.0002H11.3V11.6002Z" fill="#161312"/>
<path d="M10.5001 22H13.7001C13.8062 22 13.9079 21.9579 13.9829 21.8828C14.058 21.8078 14.1001 21.7061 14.1001 21.6V18.4C14.1001 18.2939 14.058 18.1922 13.9829 18.1172C13.9079 18.0421 13.8062 18 13.7001 18H10.5001C10.394 18 10.2923 18.0421 10.2173 18.1172C10.1422 18.1922 10.1001 18.2939 10.1001 18.4V21.6C10.1001 21.7061 10.1422 21.8078 10.2173 21.8828C10.2923 21.9579 10.394 22 10.5001 22ZM10.9001 18.8H13.3001V21.2H10.9001V18.8Z" fill="#161312"/>
<path d="M26.5002 23.6H25.3002V11.6664C25.5497 11.7553 25.8216 11.7591 26.0735 11.6773C26.3254 11.5955 26.5432 11.4326 26.6929 11.2141C26.8426 10.9955 26.9158 10.7336 26.901 10.4692C26.8862 10.2047 26.7844 9.95253 26.6114 9.752L21.0114 3.2188C20.8987 3.08734 20.7589 2.98181 20.6016 2.90946C20.4444 2.8371 20.2733 2.79964 20.1002 2.79964C19.927 2.79964 19.7559 2.8371 19.5987 2.90946C19.4414 2.98181 19.3016 3.08734 19.189 3.2188L17.491 5.2H14.5002V4.4H14.9002C15.0062 4.4 15.108 4.35786 15.183 4.28284C15.258 4.20783 15.3002 4.10609 15.3002 4V2.4C15.3002 2.29391 15.258 2.19217 15.183 2.11716C15.108 2.04214 15.0062 2 14.9002 2H10.9002C10.7941 2 10.6923 2.04214 10.6173 2.11716C10.5423 2.19217 10.5002 2.29391 10.5002 2.4V4C10.5002 4.10609 10.5423 4.20783 10.6173 4.28284C10.6923 4.35786 10.7941 4.4 10.9002 4.4H11.3002V5.2H5.70016C5.63432 5.19999 5.5695 5.21623 5.51144 5.24728C5.45339 5.27833 5.4039 5.32323 5.36736 5.378L3.76736 7.778C3.72717 7.83824 3.70408 7.90826 3.70057 7.98059C3.69706 8.05293 3.71324 8.12485 3.74741 8.18871C3.78157 8.25256 3.83243 8.30594 3.89455 8.34315C3.95668 8.38036 4.02774 8.40001 4.10016 8.4H5.30016V14H4.10016C4.03432 14 3.9695 14.0162 3.91144 14.0473C3.85339 14.0783 3.8039 14.1232 3.76736 14.178L2.16736 16.578C2.12717 16.6382 2.10408 16.7083 2.10057 16.7806C2.09706 16.8529 2.11324 16.9249 2.14741 16.9887C2.18157 17.0526 2.23243 17.1059 2.29455 17.1432C2.35668 17.1804 2.42774 17.2 2.50016 17.2H3.70016V23.6H2.50016C2.39407 23.6 2.29233 23.6421 2.21731 23.7172C2.1423 23.7922 2.10016 23.8939 2.10016 24V25.6C2.10016 25.7061 2.1423 25.8078 2.21731 25.8828C2.29233 25.9579 2.39407 26 2.50016 26H26.5002C26.6062 26 26.708 25.9579 26.783 25.8828C26.858 25.8078 26.9002 25.7061 26.9002 25.6V24C26.9002 23.8939 26.858 23.7922 26.783 23.7172C26.708 23.6421 26.6062 23.6 26.5002 23.6ZM19.7966 3.7396C19.8341 3.69582 19.8807 3.66069 19.9331 3.6366C19.9855 3.61251 20.0425 3.60004 20.1002 3.60004C20.1578 3.60004 20.2148 3.61251 20.2672 3.6366C20.3196 3.66069 20.3662 3.69582 20.4038 3.7396L26.0038 10.2728C26.0403 10.3123 26.0684 10.3588 26.0866 10.4094C26.1047 10.4601 26.1124 10.5139 26.1093 10.5676C26.1061 10.6213 26.0922 10.6738 26.0683 10.722C26.0444 10.7702 26.011 10.8131 25.9701 10.8481C25.9293 10.8831 25.8818 10.9094 25.8305 10.9257C25.7792 10.9419 25.7251 10.9476 25.6716 10.9424C25.618 10.9372 25.5661 10.9213 25.5188 10.8956C25.4716 10.8699 25.43 10.835 25.3966 10.7928L20.4038 4.9688C20.3662 4.92502 20.3196 4.88989 20.2672 4.8658C20.2148 4.84171 20.1578 4.82924 20.1002 4.82924C20.0425 4.82924 19.9855 4.84171 19.9331 4.8658C19.8807 4.88989 19.8341 4.92502 19.7966 4.9688L14.8038 10.7936C14.7703 10.8357 14.7287 10.8707 14.6815 10.8964C14.6342 10.9221 14.5823 10.938 14.5287 10.9432C14.4752 10.9484 14.4211 10.9427 14.3698 10.9265C14.3185 10.9102 14.271 10.8839 14.2302 10.8489C14.1893 10.8139 14.1559 10.771 14.132 10.7228C14.1081 10.6746 14.0942 10.6221 14.091 10.5684C14.0879 10.5147 14.0956 10.4609 14.1138 10.4102C14.1319 10.3596 14.16 10.3131 14.1966 10.2736L19.7966 3.7396ZM22.1002 18H18.1002C17.9941 18 17.8923 18.0421 17.8173 18.1172C17.7423 18.1922 17.7002 18.2939 17.7002 18.4V23.6H15.7002V10.9772L20.1002 5.844L24.5002 10.9772V23.6H22.5002V18.4C22.5002 18.2939 22.458 18.1922 22.383 18.1172C22.308 18.0421 22.2062 18 22.1002 18ZM21.7002 18.8V23.6H18.5002V18.8H21.7002ZM14.9002 11.6664V14H6.10016V8.4H14.7482L13.5882 9.752C13.4149 9.95257 13.3129 10.2049 13.2982 10.4695C13.2834 10.7341 13.3566 10.9962 13.5064 11.2148C13.6563 11.4334 13.8743 11.5963 14.1264 11.678C14.3785 11.7597 14.6506 11.7556 14.9002 11.6664ZM11.3002 2.8H14.5002V3.6H11.3002V2.8ZM13.7002 4.4V5.2H12.1002V4.4H13.7002ZM4.84776 7.6L5.91416 6H16.8054L15.4338 7.6H4.84776ZM3.24776 16.4L4.31416 14.8H14.9002V16.4H3.24776ZM14.9002 17.2V23.6H4.50016V17.2H14.9002ZM26.1002 25.2H2.90016V24.4H26.1002V25.2Z" fill="#161312"/>
<path d="M20.1001 10C19.5699 10.0006 19.0615 10.2116 18.6866 10.5865C18.3117 10.9614 18.1007 11.4698 18.1001 12V14.4C18.1001 14.5061 18.1422 14.6078 18.2173 14.6828C18.2923 14.7579 18.394 14.8 18.5001 14.8H21.7001C21.8062 14.8 21.9079 14.7579 21.9829 14.6828C22.058 14.6078 22.1001 14.5061 22.1001 14.4V12C22.0995 11.4698 21.8885 10.9614 21.5136 10.5865C21.1387 10.2116 20.6303 10.0006 20.1001 10ZM21.3001 14H18.9001V12C18.9001 11.6817 19.0265 11.3765 19.2516 11.1515C19.4766 10.9264 19.7818 10.8 20.1001 10.8C20.4184 10.8 20.7236 10.9264 20.9486 11.1515C21.1737 11.3765 21.3001 11.6817 21.3001 12V14Z" fill="#161312"/>
</svg>
