<svg width="29" height="28" viewBox="0 0 29 28" fill="none" xmlns="http://www.w3.org/2000/svg">
<path d="M13.7049 21.1091C13.899 21.1091 14.0565 20.9517 14.0565 20.7575V19.949C14.0565 19.7548 13.899 19.5974 13.7049 19.5974C13.5107 19.5974 13.3533 19.7548 13.3533 19.949V20.7575C13.3533 20.9517 13.5107 21.1091 13.7049 21.1091ZM14.5 13.6486C15.689 13.6486 16.6563 12.6813 16.6563 11.4923C16.6563 10.3034 15.689 9.33605 14.5 9.33605C13.311 9.33605 12.3437 10.3034 12.3437 11.4923C12.3437 12.6813 13.311 13.6486 14.5 13.6486ZM14.5 10.0392C15.3012 10.0392 15.9531 10.6911 15.9531 11.4923C15.9531 12.2936 15.3012 12.9455 14.5 12.9455C13.6987 12.9455 13.0468 12.2936 13.0468 11.4923C13.0468 10.6911 13.6987 10.0392 14.5 10.0392ZM25.7971 23.9004V11.8355C26.3506 11.7617 26.6755 11.1044 26.3917 10.6167L24.1173 6.63238C23.9717 6.37729 23.699 6.2188 23.4055 6.2188H19.8061L17.8772 4.61611C17.7278 4.49203 17.5062 4.51247 17.3821 4.66186C17.258 4.81121 17.2785 5.03288 17.4278 5.15697L20.0722 7.35418V8.54938L14.9044 4.25549C14.6701 4.06072 14.3299 4.06072 14.0956 4.25549L8.9278 8.54933V7.35413L14.5 2.7242L16.1616 4.10479C16.311 4.22887 16.5326 4.20843 16.6567 4.05904C16.7808 3.90969 16.7603 3.68801 16.611 3.56393L14.9044 2.14608C14.6701 1.95131 14.3299 1.95131 14.0956 2.14608L9.19392 6.2188H5.5945C5.30097 6.2188 5.02824 6.37729 4.88274 6.63234L2.60818 10.617C2.32331 11.1032 2.63616 11.7607 3.20289 11.8355V23.9004C2.80604 23.9575 2.49976 24.2989 2.49976 24.7113V25.1801C2.49976 25.6324 2.86778 26.0004 3.32008 26.0004H25.6799C26.1322 26.0004 26.5002 25.6324 26.5002 25.1801V24.7113C26.5002 24.2989 26.1939 23.9575 25.7971 23.9004ZM19.369 8.87919L19.7381 9.18586C19.9287 9.34439 20.1868 9.37744 20.4113 9.27206C20.6358 9.16668 20.7753 8.94716 20.7753 8.69914V7.32109C20.7753 7.1738 20.724 7.03383 20.6328 6.92194H23.4055C23.4471 6.92194 23.4858 6.94448 23.5065 6.98091L25.7808 10.9651C25.827 11.0539 25.7792 11.1369 25.6799 11.1408H19.369V8.87919ZM19.369 11.8439H25.094V23.891H19.369V11.8439ZM9.98256 15.8725C10.1767 15.8725 10.3341 15.7151 10.3341 15.5209V8.29498L14.5 4.83361L18.6659 8.29498V23.891H17.0529V16.7921C17.0529 16.4173 16.748 16.1124 16.3732 16.1124H12.6267C12.2519 16.1124 11.947 16.4173 11.947 16.7921V23.891H10.3341V17.1616C10.3341 16.9674 10.1767 16.81 9.98256 16.81C9.7884 16.81 9.63099 16.9674 9.63099 17.1616V23.891H3.90603V11.8439H9.63099V15.5209C9.63099 15.7151 9.7884 15.8725 9.98256 15.8725ZM16.3498 16.8155V23.891H12.6501V16.8155H16.3498ZM3.21902 10.9654L5.49349 6.98081C5.51421 6.94448 5.55293 6.92194 5.5945 6.92194H8.36722C8.27595 7.03383 8.22467 7.1738 8.22467 7.32109V8.69914C8.22467 8.94716 8.36417 9.16668 8.5887 9.27206C8.81155 9.37664 9.07017 9.34528 9.26194 9.1859L9.63104 8.87924V11.1408H3.32008C3.22141 11.1369 3.17303 11.0538 3.21902 10.9654ZM25.7971 25.1801C25.7971 25.2447 25.7445 25.2973 25.6799 25.2973H3.32008C3.25549 25.2973 3.20289 25.2447 3.20289 25.1801V24.7114C3.20289 24.6468 3.25549 24.5942 3.32008 24.5942H25.6799C25.7445 24.5942 25.7971 24.6468 25.7971 24.7114V25.1801ZM8.47166 19.3592V14.9846C8.47166 14.6098 8.16673 14.3049 7.79195 14.3049H5.74502C5.37025 14.3049 5.06532 14.6098 5.06532 14.9846V19.3592C4.80019 19.4519 4.60917 19.7039 4.60917 20.0003V20.7503C4.60917 21.1251 4.9141 21.43 5.28887 21.43H8.2481C8.62288 21.43 8.9278 21.1251 8.9278 20.7503V20.0003C8.9278 19.7039 8.73679 19.4519 8.47166 19.3592ZM5.76846 15.008H7.76852V19.3206H5.76846V15.008ZM8.22467 20.7269H5.31231V20.0238H8.22467V20.7269ZM23.9347 19.3592V14.9846C23.9347 14.6098 23.6297 14.3049 23.255 14.3049H21.208C20.8333 14.3049 20.5283 14.6098 20.5283 14.9846V19.3592C20.2632 19.4519 20.0722 19.7039 20.0722 20.0003V20.7503C20.0722 21.1251 20.3771 21.43 20.7519 21.43H23.7111C24.0859 21.43 24.3908 21.1251 24.3908 20.7503V20.0003C24.3908 19.7039 24.1998 19.4519 23.9347 19.3592ZM21.2315 15.008H23.2315V19.3206H21.2315V15.008ZM23.6877 20.7269H20.7753V20.0238H23.6877V20.7269Z" fill="#161312"/>
</svg>
