<svg width="16" height="16" viewBox="0 0 16 16" fill="none" xmlns="http://www.w3.org/2000/svg">
<g clip-path="url(#clip0_2081_2720)">
<path d="M13.6597 2.81247C10.5387 -0.0487034 5.46096 -0.0487033 2.34058 2.81178C-0.780396 5.67226 -0.780094 10.327 2.34089 13.1881C5.46096 16.0484 10.5387 16.0484 13.6594 13.1875C16.7801 10.327 16.7799 5.67254 13.6597 2.81247ZM12.7864 12.3875C10.1473 14.8067 5.85289 14.807 3.21361 12.3878C0.573869 9.96817 0.574171 6.03126 3.21361 3.61205C5.85274 1.19298 10.147 1.19271 12.7867 3.61233C15.4258 6.03154 15.4255 9.96845 12.7864 12.3875ZM5.01457 6.01425C5.01457 5.54075 5.4335 5.15673 5.95005 5.15673C6.46644 5.15673 6.88537 5.54061 6.88537 6.01425C6.88537 6.48802 6.46644 6.87191 5.95005 6.87191C5.4335 6.87191 5.01457 6.48802 5.01457 6.01425ZM9.25628 6.01425C9.25628 5.54075 9.67552 5.15673 10.1921 5.15673C10.7085 5.15673 11.1274 5.54061 11.1274 6.01425C11.1274 6.48802 10.7086 6.87191 10.1921 6.87191C9.67552 6.87191 9.25628 6.48802 9.25628 6.01425ZM11.4679 9.52635C10.8881 10.7553 9.53039 11.5494 8.00913 11.5494C6.45512 11.5494 5.08939 10.7513 4.5297 9.51611C4.43376 9.30467 4.54313 9.06184 4.7741 8.97389C4.83082 8.95245 4.88966 8.94222 4.94759 8.94222C5.125 8.94222 5.29336 9.03833 5.36562 9.19805C5.78455 10.1226 6.82216 10.7198 8.00913 10.7198C9.16924 10.7198 10.2008 10.1222 10.6371 9.19708C10.7364 8.98675 11.0028 8.88981 11.2321 8.98094C11.4614 9.07207 11.5671 9.31615 11.4679 9.52635Z" fill="#AAAAAA"/>
</g>
<defs>
<clipPath id="clip0_2081_2720">
<rect width="16" height="14.6667" fill="white" transform="translate(0 0.666626)"/>
</clipPath>
</defs>
</svg>
