<svg width="20" height="20" viewBox="0 0 20 20" fill="none" xmlns="http://www.w3.org/2000/svg">
<path fill-rule="evenodd" clip-rule="evenodd" d="M9.9992 4.28571C8.73683 4.28571 7.71348 5.30906 7.71348 6.57143V7.71429H12.2849V6.57143C12.2849 5.30906 11.2616 4.28571 9.9992 4.28571ZM5.42777 6.57143V7.71429H4.85638C3.9096 7.71429 3.14209 8.48179 3.14209 9.42857V16.2857C3.14209 17.2325 3.9096 18 4.85638 18H15.1421C16.0888 18 16.8564 17.2325 16.8564 16.2857V9.42857C16.8564 8.48179 16.0888 7.71429 15.1421 7.71429H14.5707V6.57143C14.5707 4.0467 12.5239 2 9.9992 2C7.47447 2 5.42777 4.0467 5.42777 6.57143ZM9.99923 14.2857C10.7882 14.2857 11.4278 13.6462 11.4278 12.8571C11.4278 12.0682 10.7882 11.4286 9.99923 11.4286C9.21025 11.4286 8.57066 12.0682 8.57066 12.8571C8.57066 13.6462 9.21025 14.2857 9.99923 14.2857Z" fill="#0CBC12"/>
</svg>
