<svg width="16" height="16" viewBox="0 0 16 16" fill="none" xmlns="http://www.w3.org/2000/svg">
<path fill-rule="evenodd" clip-rule="evenodd" d="M2 7.33301C2 4.0193 4.68629 1.33301 8 1.33301C11.3137 1.33301 14 4.0193 14 7.33301C14 9.3506 12.7935 11.0608 11.4033 12.2657L9.10902 14.2541C8.47255 14.8057 7.52745 14.8057 6.89098 14.2541L4.5967 12.2657C3.20651 11.0608 2 9.3506 2 7.33301ZM8 8.66634C8.73638 8.66634 9.33333 8.06939 9.33333 7.33301C9.33333 6.59663 8.73638 5.99967 8 5.99967C7.26362 5.99967 6.66667 6.59663 6.66667 7.33301C6.66667 8.06939 7.26362 8.66634 8 8.66634Z" stroke="white"/>
</svg>
