<svg width="25" height="24" viewBox="0 0 25 24" fill="none" xmlns="http://www.w3.org/2000/svg">
<path d="M18.2563 3.64038C19.8319 3.04573 21.374 4.5202 20.9106 6.09155L20.8599 6.2439L16.0854 18.8875C15.2634 21.0643 12.2157 21.0141 11.4165 18.9119L11.3462 18.7019L10.3267 15.1951C10.2013 14.7638 9.89073 14.4146 9.48486 14.238L9.30518 14.1736L5.79736 13.1541C3.56336 12.5043 3.37555 9.46167 5.40869 8.50073L5.61279 8.41479L18.2563 3.64038ZM18.7632 4.53101L18.6089 4.57593L5.96631 9.35034C4.66031 9.84345 4.68984 11.6713 5.95068 12.1511L6.07666 12.1941L9.58447 13.2136C10.3546 13.4377 10.9676 14.0159 11.2378 14.7644L11.2866 14.9158L12.3062 18.4226C12.6959 19.7634 14.5217 19.8763 15.0981 18.656L15.1499 18.5339L19.9243 5.89038C20.2146 5.12064 19.5268 4.36699 18.7632 4.53101Z" fill="#3083F9" stroke="#3083F9"/>
</svg>
