<svg width="24" height="24" viewBox="0 0 24 24" fill="none" xmlns="http://www.w3.org/2000/svg">
<g clip-path="url(#clip0_2124_1436)">
<path d="M16.8512 13.2239C16.6162 13.2045 16.3831 13.2792 16.203 13.4315C16.023 13.5838 15.9107 13.8013 15.8907 14.0362C15.812 14.9653 15.7145 15.7734 15.6292 16.1981V16.2033C15.3774 17.5017 14.1474 18.7851 12.886 19.0673C12.7768 19.0898 12.6671 19.1114 12.5579 19.132C12.6517 17.9259 12.7215 16.3837 12.7121 15.1945C12.7262 13.3776 12.5523 10.5801 12.3981 9.46685C12.121 7.41701 10.8606 5.14357 9.46603 4.17748L9.45759 4.17185C8.48799 3.51682 7.44885 2.97115 6.35916 2.54482C6.16478 2.46951 5.97275 2.3992 5.78306 2.33388C6.8175 2.17395 7.86291 2.09558 8.90963 2.09951C10.3346 2.09951 11.6354 2.22935 12.886 2.48904C14.1474 2.77029 15.3774 4.05466 15.6292 5.3531V5.35826C15.714 5.78013 15.8115 6.58826 15.8903 7.51451C15.9103 7.74991 16.023 7.96772 16.2036 8.12002C16.3842 8.27232 16.6179 8.34663 16.8533 8.32662C17.0887 8.3066 17.3065 8.19389 17.4588 8.01329C17.6111 7.83268 17.6854 7.59897 17.6654 7.36357C17.5801 6.36091 17.4751 5.50357 17.3767 5.01045C16.9881 3.0131 15.2204 1.18076 13.2648 0.747633L13.2535 0.74529C11.8792 0.46029 10.4588 0.320602 8.90635 0.31779C7.35385 0.314977 5.93916 0.458415 4.56478 0.745758L4.55306 0.748102C3.68025 0.941696 2.84541 1.4142 2.15353 2.05498C1.96654 2.19597 1.80311 2.36574 1.66931 2.55795C1.05806 3.27138 0.614157 4.12498 0.441657 5.01045C0.225564 6.09373 -0.0186552 8.90295 9.47996e-05 10.7779C-0.0102177 11.7839 0.0549386 13.0589 0.151501 14.1919C0.203064 14.9184 0.261657 15.5512 0.317907 15.9572C0.594939 18.007 1.85541 20.2804 3.25041 21.2465L3.25838 21.2522C4.22821 21.9071 5.26749 22.4527 6.35728 22.8792C7.46072 23.3076 8.47322 23.5673 9.45338 23.6733H9.46181C10.779 23.7909 11.9762 22.6476 12.3385 20.9761C12.6451 20.9273 12.949 20.8719 13.2503 20.8097L13.2615 20.8073C15.2176 20.3742 16.9848 18.5419 17.3734 16.5445C17.4718 16.0504 17.5773 15.1912 17.6626 14.1862C17.6825 13.951 17.6082 13.7176 17.456 13.5372C17.3039 13.3567 17.0863 13.244 16.8512 13.2239Z" fill="black"/>
<path d="M24.0041 10.7765C24.0041 10.747 24.0041 10.7175 23.9994 10.688C23.9996 10.6861 23.9996 10.6842 23.9994 10.6823C23.9966 10.6546 23.9924 10.6271 23.9868 10.5998V10.5937C23.9516 10.4245 23.8677 10.2692 23.7454 10.147L20.5579 6.9567C20.3908 6.78962 20.1643 6.69572 19.928 6.69568C19.6918 6.69563 19.4652 6.78944 19.2981 6.95647C19.131 7.12349 19.0371 7.35005 19.0371 7.5863C19.037 7.82255 19.1308 8.04915 19.2979 8.21623L20.9699 9.8878H14.8213C14.5851 9.8878 14.3585 9.98163 14.1915 10.1487C14.0245 10.3157 13.9307 10.5422 13.9307 10.7784C13.9307 11.0146 14.0245 11.2412 14.1915 11.4082C14.3585 11.5752 14.5851 11.669 14.8213 11.669H20.9619L19.2913 13.3397C19.1248 13.5068 19.0315 13.7332 19.0317 13.9691C19.032 14.2049 19.1258 14.4311 19.2926 14.5979C19.4594 14.7647 19.6855 14.8585 19.9214 14.8588C20.1573 14.859 20.3837 14.7657 20.5508 14.5992L23.7238 11.4262C23.8389 11.3185 23.923 11.1819 23.9675 11.0306C23.9756 11.0036 23.9822 10.9763 23.9872 10.9486C23.9875 10.9447 23.9875 10.9408 23.9872 10.9369C23.9914 10.913 23.9957 10.89 23.998 10.8647C24.0004 10.8394 23.998 10.8281 23.998 10.8103V10.7794L24.0041 10.7765Z" fill="black"/>
</g>
<defs>
<clipPath id="clip0_2124_1436">
<rect width="24" height="24" fill="white"/>
</clipPath>
</defs>
</svg>
