<svg width="25" height="24" viewBox="0 0 25 24" fill="none" xmlns="http://www.w3.org/2000/svg">
<path d="M12.5003 22.3C10.6979 22.3115 8.92214 21.8642 7.34034 21C7.30865 20.9868 7.27466 20.98 7.24034 20.98C7.20601 20.98 7.17202 20.9868 7.14034 21L3.61034 22C3.39429 22.0687 3.16353 22.0769 2.94314 22.0237C2.72276 21.9704 2.5212 21.8578 2.36037 21.698C2.19954 21.5382 2.08559 21.3373 2.03093 21.1173C1.97627 20.8973 1.98298 20.6664 2.05034 20.45L3.11034 16.9C3.13336 16.8387 3.13336 16.7712 3.11034 16.71C2.02624 14.7286 1.59375 12.4561 1.87426 10.215C2.15476 7.97387 3.13401 5.87805 4.67301 4.22498C6.21201 2.5719 8.23258 1.44556 10.4479 1.0058C12.6633 0.566035 14.9609 0.835206 17.0146 1.7751C19.0683 2.715 20.7738 4.27788 21.8891 6.24191C23.0043 8.20593 23.4726 10.4713 23.2275 12.7166C22.9825 14.9618 22.0364 17.0728 20.5237 18.75C19.011 20.4272 17.0085 21.5853 14.8003 22.06C14.0437 22.2172 13.2731 22.2976 12.5003 22.3ZM7.21034 19.43C7.50722 19.434 7.79876 19.5095 8.06034 19.65C9.35445 20.3597 10.7996 20.7494 12.2751 20.7866C13.7505 20.8238 15.2135 20.5074 16.5417 19.8638C17.87 19.2202 19.0249 18.2681 19.9101 17.0871C20.7952 15.906 21.3849 14.5303 21.6299 13.0748C21.8749 11.6193 21.768 10.1264 21.3182 8.72065C20.8684 7.31491 20.0888 6.03721 19.0444 4.99428C18.0001 3.95136 16.7213 3.17348 15.3149 2.72564C13.9086 2.27779 12.4155 2.17298 10.9603 2.41996C9.50239 2.66218 8.12393 3.25096 6.94089 4.13679C5.75785 5.02261 4.80483 6.17957 4.16197 7.51036C3.51911 8.84116 3.20522 10.3069 3.2467 11.7842C3.28819 13.2616 3.68382 14.7073 4.40034 16C4.513 16.204 4.58425 16.4283 4.60999 16.66C4.63573 16.8917 4.61546 17.1261 4.55034 17.35L3.62034 20.44L6.71034 19.51C6.87218 19.4589 7.04065 19.432 7.21034 19.43Z" fill="#B5AEA8"/>
<path d="M8.5 13.25C9.19036 13.25 9.75 12.6904 9.75 12C9.75 11.3096 9.19036 10.75 8.5 10.75C7.80964 10.75 7.25 11.3096 7.25 12C7.25 12.6904 7.80964 13.25 8.5 13.25Z" fill="#B5AEA8"/>
<path d="M12.5 13.25C13.1904 13.25 13.75 12.6904 13.75 12C13.75 11.3096 13.1904 10.75 12.5 10.75C11.8096 10.75 11.25 11.3096 11.25 12C11.25 12.6904 11.8096 13.25 12.5 13.25Z" fill="#B5AEA8"/>
<path d="M16.5 13.25C17.1904 13.25 17.75 12.6904 17.75 12C17.75 11.3096 17.1904 10.75 16.5 10.75C15.8096 10.75 15.25 11.3096 15.25 12C15.25 12.6904 15.8096 13.25 16.5 13.25Z" fill="#B5AEA8"/>
</svg>
