<svg width="25" height="24" viewBox="0 0 25 24" fill="none" xmlns="http://www.w3.org/2000/svg">
<path d="M20.1002 3.93998C18.8903 2.72957 17.4088 1.82579 15.7789 1.30395C14.149 0.782116 12.418 0.657326 10.7302 0.939981C9.03677 1.22142 7.43551 1.90467 6.06059 2.93246C4.68567 3.96025 3.57715 5.30264 2.82792 6.84712C2.0787 8.3916 1.7106 10.0932 1.75449 11.8092C1.79837 13.5253 2.25296 15.2058 3.08015 16.71C3.10317 16.7712 3.10317 16.8387 3.08015 16.9L2.05015 20.45C1.9828 20.6665 1.97609 20.8973 2.03075 21.1173C2.08541 21.3373 2.19935 21.5382 2.36018 21.698C2.52102 21.8578 2.72258 21.9704 2.94296 22.0237C3.16334 22.0769 3.39411 22.0687 3.61015 22L7.14015 20.94C7.20486 20.9171 7.27545 20.9171 7.34015 20.94C8.91637 21.8251 10.6924 22.2932 12.5002 22.3C13.2763 22.2983 14.0503 22.2179 14.8102 22.06C16.6952 21.6447 18.4338 20.73 19.8437 19.4118C21.2537 18.0935 22.2831 16.4203 22.824 14.5674C23.365 12.7145 23.3975 10.7502 22.9183 8.88045C22.439 7.01067 21.4657 5.30423 20.1002 3.93998ZM8.50015 13.25C8.25293 13.25 8.01125 13.1767 7.80569 13.0393C7.60013 12.902 7.43991 12.7067 7.3453 12.4783C7.2507 12.2499 7.22594 11.9986 7.27417 11.7561C7.3224 11.5136 7.44146 11.2909 7.61627 11.1161C7.79109 10.9413 8.01382 10.8222 8.25629 10.774C8.49877 10.7258 8.7501 10.7505 8.97851 10.8451C9.20692 10.9397 9.40214 11.1 9.53949 11.3055C9.67684 11.5111 9.75015 11.7528 9.75015 12C9.75015 12.3315 9.61846 12.6494 9.38404 12.8839C9.14962 13.1183 8.83168 13.25 8.50015 13.25ZM12.5002 13.25C12.2529 13.25 12.0113 13.1767 11.8057 13.0393C11.6001 12.902 11.4399 12.7067 11.3453 12.4783C11.2507 12.2499 11.2259 11.9986 11.2742 11.7561C11.3224 11.5136 11.4415 11.2909 11.6163 11.1161C11.7911 10.9413 12.0138 10.8222 12.2563 10.774C12.4988 10.7258 12.7501 10.7505 12.9785 10.8451C13.2069 10.9397 13.4021 11.1 13.5395 11.3055C13.6768 11.5111 13.7502 11.7528 13.7502 12C13.7502 12.3315 13.6185 12.6494 13.384 12.8839C13.1496 13.1183 12.8317 13.25 12.5002 13.25ZM16.5002 13.25C16.2529 13.25 16.0113 13.1767 15.8057 13.0393C15.6001 12.902 15.4399 12.7067 15.3453 12.4783C15.2507 12.2499 15.2259 11.9986 15.2742 11.7561C15.3224 11.5136 15.4415 11.2909 15.6163 11.1161C15.7911 10.9413 16.0138 10.8222 16.2563 10.774C16.4988 10.7258 16.7501 10.7505 16.9785 10.8451C17.2069 10.9397 17.4021 11.1 17.5395 11.3055C17.6768 11.5111 17.7502 11.7528 17.7502 12C17.7502 12.3315 17.6185 12.6494 17.384 12.8839C17.1496 13.1183 16.8317 13.25 16.5002 13.25Z" fill="black"/>
</svg>
