<svg width="24" height="24" viewBox="0 0 24 24" fill="none" xmlns="http://www.w3.org/2000/svg">
<path d="M20.182 4.18203C18.8413 4.03929 17.5217 3.74095 16.25 3.29303C15.083 2.8806 13.9636 2.3442 12.911 1.69303C12.6364 1.52636 12.3213 1.43823 12 1.43823C11.6787 1.43823 11.3636 1.52636 11.089 1.69303L11.088 1.69403C10.0356 2.34468 8.91657 2.88074 7.75 3.29303C6.47891 3.74076 5.16004 4.0391 3.82 4.18203C3.38954 4.22587 2.99066 4.42789 2.70062 4.74897C2.41057 5.07005 2.25 5.48734 2.25 5.92003V11.115C2.25073 13.032 2.76378 14.914 3.73605 16.5662C4.70832 18.2183 6.10447 19.5806 7.78 20.512L11.15 22.385C11.4095 22.531 11.7023 22.6077 12 22.6077C12.2977 22.6077 12.5905 22.531 12.85 22.385L16.22 20.512C17.8955 19.5806 19.2917 18.2183 20.264 16.5662C21.2362 14.914 21.7493 13.032 21.75 11.115V5.92103C21.7505 5.48831 21.5905 5.07078 21.3008 4.74933C21.0111 4.42787 20.6124 4.22637 20.182 4.18203ZM15.979 10.184L12.229 14.184C12.0509 14.3741 11.8055 14.487 11.5453 14.4988C11.2851 14.5105 11.0306 14.4202 10.836 14.247L8.586 12.247C8.48287 12.1613 8.39805 12.0557 8.33656 11.9365C8.27508 11.8173 8.23819 11.687 8.2281 11.5533C8.21801 11.4195 8.23493 11.2852 8.27783 11.1581C8.32074 11.031 8.38876 10.9139 8.47786 10.8137C8.56696 10.7134 8.6753 10.6322 8.79645 10.5747C8.9176 10.5171 9.04909 10.4846 9.18307 10.4789C9.31706 10.4733 9.45082 10.4946 9.57639 10.5417C9.70196 10.5888 9.81677 10.6607 9.914 10.753L11.437 12.106L14.521 8.81603C14.6146 8.71648 14.7275 8.6371 14.8529 8.58276C14.9782 8.52843 15.1134 8.50027 15.25 8.50003C15.4451 8.49993 15.6359 8.55689 15.7991 8.66391C15.9622 8.77092 16.0904 8.92331 16.168 9.1023C16.2456 9.28129 16.2692 9.47907 16.2357 9.67128C16.2023 9.86348 16.1124 10.0417 15.979 10.184Z" fill="black"/>
</svg>
