<svg width="25" height="24" viewBox="0 0 25 24" fill="none" xmlns="http://www.w3.org/2000/svg">
<path d="M12.9011 15.6201C9.9967 15.6201 7.63379 17.983 7.63379 20.8874C7.63379 21.0555 7.64204 21.2216 7.6576 21.3855C9.23165 22.3077 11.0283 22.7999 12.9011 22.7999C14.7738 22.7999 16.5705 22.3077 18.1445 21.3855C18.1601 21.2214 18.1683 21.0555 18.1683 20.8874C18.1683 17.983 15.8054 15.6201 12.9011 15.6201Z" fill="black"/>
<path d="M20.2539 5.04606C18.2896 3.08184 15.6781 2 12.9 2C10.1219 2 7.51036 3.0818 5.54606 5.04606C3.58184 7.01036 2.5 9.62194 2.5 12.4C2.5 15.1779 3.5818 17.7896 5.54606 19.7539C5.82371 20.0314 6.11664 20.2932 6.42348 20.538C6.55982 17.9843 8.18003 15.8184 10.4354 14.8884C9.19565 14.0802 8.37446 12.6817 8.37446 11.0946C8.37446 8.59917 10.4046 6.56905 12.9 6.56905C15.3954 6.56905 17.4255 8.59917 17.4255 11.0946C17.4255 12.6817 16.6043 14.0802 15.3646 14.8884C17.62 15.8183 19.2402 17.9844 19.3765 20.538C19.6833 20.2931 19.9762 20.0314 20.2539 19.7539C22.2182 17.7896 23.3 15.1779 23.3 12.4C23.3 9.62194 22.2182 7.01036 20.2539 5.04606Z" fill="black"/>
<path d="M16.2073 11.0946C16.2073 9.2711 14.7239 7.78784 12.9005 7.78784C11.0772 7.78784 9.59375 9.27126 9.59375 11.0946C9.59375 12.918 11.0772 14.4015 12.9005 14.4015C14.7239 14.4015 16.2073 12.918 16.2073 11.0946Z" fill="black"/>
</svg>
