<svg width="24" height="24" viewBox="0 0 24 24" fill="none" xmlns="http://www.w3.org/2000/svg">
<path d="M12 15.6738C14.1571 15.6738 16.0861 15.8513 17.46 16.3379C18.1434 16.5799 18.6545 16.8866 18.9912 17.2539C19.3175 17.61 19.4999 18.0435 19.5 18.5986C19.5 19.1531 19.3166 19.5846 18.9893 19.9385C18.6513 20.3039 18.1385 20.6083 17.4531 20.8477C16.0756 21.3287 14.1461 21.5 12 21.5C9.84334 21.5 7.91404 21.3225 6.54004 20.8359C5.85661 20.5939 5.34549 20.2873 5.00879 19.9199C4.6824 19.5638 4.50005 19.1303 4.5 18.5752C4.5 18.0207 4.68338 17.5893 5.01074 17.2354C5.34875 16.87 5.86147 16.5655 6.54688 16.3262C7.92436 15.8451 9.85395 15.6738 12 15.6738ZM12 2.5C14.6632 2.5 16.7939 4.63038 16.7939 7.29102C16.7939 9.95179 14.6631 12.083 12 12.083C9.33787 12.083 7.20605 9.95173 7.20605 7.29102C7.20607 4.63044 9.33776 2.5 12 2.5Z" fill="black" stroke="black"/>
</svg>
