<svg width="25" height="24" viewBox="0 0 25 24" fill="none" xmlns="http://www.w3.org/2000/svg">
<g clip-path="url(#clip0_2325_880)">
<mask id="mask0_2325_880" style="mask-type:luminance" maskUnits="userSpaceOnUse" x="0" y="0" width="25" height="24">
<path d="M24 23.5V0.5H1V23.5H24Z" fill="white" stroke="white"/>
</mask>
<g mask="url(#mask0_2325_880)">
<path d="M22.7969 12.6016C22.7969 18.3445 18.1413 23 12.3984 23C6.65544 23 2 18.3445 2 12.6016C2 6.85856 6.65544 2.20313 12.3984 2.20313C18.1413 2.20313 22.7969 6.85856 22.7969 12.6016Z" stroke="#B5AEA8" stroke-width="1.3" stroke-miterlimit="10" stroke-linecap="round" stroke-linejoin="round"/>
<path d="M16.5581 11.2151C16.5581 13.5123 14.6959 15.3745 12.3987 15.3745C10.1014 15.3745 8.23926 13.5123 8.23926 11.2151C8.23926 8.91803 10.1014 7.0558 12.3987 7.0558C14.6959 7.0558 16.5581 8.91803 16.5581 11.2151Z" stroke="#B5AEA8" stroke-width="1.3" stroke-miterlimit="10" stroke-linecap="round" stroke-linejoin="round"/>
<path d="M6.19434 20.9473C6.527 17.8147 9.17761 15.3745 12.3983 15.3745C15.6191 15.3745 18.2697 17.8149 18.6022 20.9474" stroke="#B5AEA8" stroke-width="1.3" stroke-miterlimit="10" stroke-linecap="round" stroke-linejoin="round"/>
</g>
</g>
<defs>
<clipPath id="clip0_2325_880">
<rect width="24" height="24" fill="white" transform="translate(0.5)"/>
</clipPath>
</defs>
</svg>
