<svg width="40" height="40" viewBox="0 0 40 40" fill="none" xmlns="http://www.w3.org/2000/svg">
<circle cx="20" cy="20" r="20" fill="#3083F9"/>
<path d="M17.9996 22L28.9996 11M17.9996 22L21.4996 29C21.5435 29.0957 21.6139 29.1769 21.7025 29.2338C21.7912 29.2906 21.8943 29.3209 21.9996 29.3209C22.1049 29.3209 22.208 29.2906 22.2966 29.2338C22.3853 29.1769 22.4557 29.0957 22.4996 29L28.9996 11M17.9996 22L10.9996 18.5C10.9038 18.4561 10.8227 18.3857 10.7658 18.2971C10.7089 18.2084 10.6787 18.1053 10.6787 18C10.6787 17.8947 10.7089 17.7916 10.7658 17.7029C10.8227 17.6143 10.9038 17.5439 10.9996 17.5L28.9996 11" stroke="white" stroke-width="2" stroke-linecap="round" stroke-linejoin="round"/>
</svg>
