<svg width="500" height="369" viewBox="0 0 500 369" fill="none" xmlns="http://www.w3.org/2000/svg">
<path d="M409.943 102.382C401.398 103.387 392.91 106.123 384.701 109.474C384.142 109.642 383.36 109.977 382.914 109.697L382.746 109.586C379.228 56.9798 323.83 42.6276 279.656 34.7535C221.633 24.7573 156.016 24.8689 98.6071 40.7847C16.2358 64.2955 21.9319 134.604 36.8984 203.852C45.5543 245.177 57.2259 281.7 91.3472 308.449C125.915 335.925 181.09 343.799 226.604 338.773C265.807 333.971 306.071 321.461 330.14 290.523C336.506 279.354 347.284 272.15 359.459 266.51C371.521 260.925 384.98 256.849 397.266 251.879C422.34 241.156 452.999 221.499 464.894 196.536C470.088 185.144 472.656 172.802 471.93 160.405C470.981 129.522 442.779 96.9089 409.943 102.382ZM380.68 156.663C395.255 146.89 422.452 141.92 427.813 162.918C436.804 192.795 396.428 221.331 369.567 223.063L369.455 222.951C368.059 201.73 376.938 180.732 378.781 159.567C379.004 158.282 379.619 157.333 380.68 156.663ZM305.401 47.542C341.197 57.0915 392.184 79.2619 360.966 118.856L360.799 119.079C344.269 139.742 318.58 151.19 293.282 157.277C229.787 170.568 89.4484 168.279 41.0867 118.465C38.7412 115.449 38.127 111.764 38.3504 107.464C49.296 17.2182 241.123 31.0119 305.401 47.542ZM89.3926 298.397L89.225 298.174C50.5803 265.281 47.4531 213.457 37.7919 166.938C34.9997 154.094 32.4308 140.747 35.3347 127.624C35.4464 127.065 35.6699 126.339 35.7816 125.837C35.9491 125.446 36.0607 125.222 36.2283 125.278C39.8582 127.177 71.8573 145.382 83.473 151.86C97.0992 156.328 111.06 159.734 124.854 162.583C143.283 166.268 161.879 168.67 180.587 169.954C249.109 173.64 331.201 174.031 375.039 112.21C376.101 110.758 376.659 110.591 376.826 112.266C377.664 129.913 371.856 147.002 370.125 164.425C365.937 195.028 364.206 221.555 350.97 248.64C308.863 341.677 164.727 360.664 89.3926 298.397ZM411.674 238.364C408.714 240.207 407.43 240.207 401.398 242.832C390.397 247.355 362.083 258.859 352.199 262.88C353.372 260.199 363.759 238.308 365.825 233.729C366.104 233.17 366.328 232.891 367.109 232.5C371.242 230.546 375.821 229.15 380.289 227.865C386.432 226.022 392.686 224.403 398.494 221.834C406.927 217.813 414.633 210.777 421.223 204.243C428.818 196.257 434.347 185.982 434.905 174.757C437.139 145.829 418.822 137.285 396.205 142.534C391.514 143.539 386.432 145.438 381.685 147.504C380.959 147.728 380.512 147.951 380.456 147.281C380.791 143.484 382.746 121.983 383.081 118.577C383.416 117.516 384.701 117.125 385.706 116.51C417.147 99.8687 453.446 111.652 463.274 147.56C476.007 189.221 443.114 218.427 411.674 238.364Z" fill="#1B1B1B"/>
<path d="M305.412 47.5405C241.134 31.0104 49.3067 17.2167 38.3611 107.462C38.1377 111.762 38.752 115.448 41.0975 118.464C89.4592 168.277 229.797 170.567 293.293 157.276C318.591 151.189 344.28 139.74 360.81 119.078L360.977 118.854C392.194 79.2604 341.208 57.09 305.412 47.5405ZM347.909 122.484L347.742 122.708C338.36 133.988 318.479 140.411 302.172 144.99C238.453 162.693 130.226 167.049 72.0356 129.633C63.1004 124.216 54.277 112.879 56.2316 102.604C56.8459 95.7347 63.4355 87.8047 70.807 83.3929C88.2865 72.3915 122.128 58.8211 146.365 53.3483C200.814 43.6313 294.522 54.0743 342.66 83.2254C359.581 93.6684 361.815 105.898 347.909 122.484Z" fill="#FF877C"/>
<path d="M411.681 238.361C408.721 240.204 407.437 240.204 401.405 242.829C390.404 247.352 362.091 258.856 352.206 262.877C353.379 260.196 363.766 238.305 365.832 233.726C366.111 233.167 366.335 232.888 367.117 232.497C371.249 230.543 375.828 229.147 380.296 227.862C386.439 226.019 392.694 224.4 398.501 221.831C406.934 217.81 414.641 210.774 421.23 204.24C428.825 196.254 434.354 185.978 434.912 174.754C437.146 145.826 418.829 137.282 396.212 142.531C391.521 143.536 386.439 145.435 381.692 147.501C380.966 147.725 380.519 147.948 380.464 147.278C380.799 143.48 382.753 121.98 383.088 118.574C383.423 117.513 384.708 117.122 385.713 116.507C417.154 99.8656 453.453 111.649 463.282 147.557C476.014 189.217 443.122 218.424 411.681 238.361Z" fill="#FF877C"/>
<path d="M370.128 164.421C365.94 195.024 364.209 221.551 350.974 248.636C308.866 341.673 164.731 360.66 89.3957 298.393L89.2282 298.17C50.5835 265.277 47.4562 213.453 37.7951 166.934C35.0028 154.09 32.4339 140.743 35.3379 127.62C35.4496 127.061 35.673 126.335 35.7847 125.833C35.9523 125.442 36.0639 125.218 36.2314 125.274C39.8613 127.173 71.8604 145.378 83.4762 151.856C97.1023 156.324 111.064 159.73 124.857 162.579C143.286 166.264 161.883 168.666 180.591 169.95C249.112 173.636 331.204 174.027 375.043 112.206C376.104 110.754 376.662 110.587 376.83 112.262C377.667 129.909 371.859 146.998 370.128 164.421Z" fill="#FF877C"/>
<path d="M342.646 83.2491C294.508 54.0981 200.8 43.655 146.351 53.3721C122.115 58.8449 88.2726 72.4152 70.7932 83.4166C63.4217 87.8284 56.832 95.7584 56.2177 102.627C54.2632 112.903 63.0866 124.239 72.0218 129.656C130.212 167.072 238.44 162.716 302.159 145.014C318.465 140.434 338.346 134.012 347.728 122.731L347.896 122.508C361.801 105.922 359.567 93.6921 342.646 83.2491ZM329.188 128.539C260.275 158.249 133.116 163.554 70.0672 118.599C62.193 111.395 59.4567 102.906 67.3867 94.3622C69.5647 92.0167 72.4126 89.8388 74.9257 88.2193C83.9725 82.7465 104.691 74.0347 117.87 69.1762C185.052 45.4979 283.451 57.5046 343.931 92.5752L344.154 92.7427C358.73 104.694 341.641 123.513 329.188 128.539Z" fill="#1B1B1B"/>
<path d="M344.17 92.7262L343.947 92.5586C283.466 57.488 185.068 45.4814 117.886 69.1596C104.707 74.0181 83.9884 82.7299 74.9415 88.2027C72.4285 89.8222 69.5805 92.0002 67.4025 94.3456C59.4726 102.89 62.2089 111.378 70.083 118.582C133.132 163.538 260.291 158.232 329.203 128.523C341.657 123.497 358.745 104.677 344.17 92.7262ZM160.775 136.229C141.006 143.545 108.895 110.094 117.607 88.9287C118.277 87.03 119.562 86.6949 121.628 86.3598C122.801 86.1364 123.694 85.9689 123.918 86.3598V86.4715C118.668 103.002 131.233 120.09 145.697 127.573C149.83 129.64 156.419 130.477 160.496 132.767C162.897 134.051 163.009 135.392 160.775 136.285V136.229ZM212.376 136.397C209.193 138.854 208.299 144.271 203.776 144.774C202.156 144.885 200.481 144.439 199.811 143.322C198.247 140.362 197.912 136.341 195.622 133.716C188.53 124.39 180.377 124.949 172 120.314C166.025 116.684 155.693 108.251 152.008 105.012C150.891 103.951 150.165 102.499 149.662 100.991C141.955 73.6272 184.007 66.8141 198.917 82.7858L199.085 82.9533C200.202 84.1819 201.151 85.6338 201.877 87.0858C202.882 88.7612 202.882 90.8274 204.502 91.3859C205.619 91.6651 206.68 90.8274 207.35 89.9898C219.524 73.4597 253.589 68.4336 262.134 89.3196C271.181 110.317 242.03 115.287 229.52 121.43C223.266 125.395 217.737 131.427 212.376 136.397ZM249.066 138.687L248.954 138.575C248.34 137.849 248.787 136.676 248.675 135.112C248.787 132.823 248.173 131.147 250.797 131.315C262.971 130.366 276.988 118.471 281.289 107.637C282.685 104.119 282.015 99.3717 283.411 95.9652C283.969 94.5132 284.974 93.3963 286.482 93.508C288.772 93.8989 290.168 96.2444 289.944 98.4223C289.442 117.856 267.942 137.625 249.066 138.687Z" fill="#F9E1CF"/>
<path d="M262.133 89.3074C253.589 68.4214 219.523 73.4475 207.349 89.9776C206.679 90.8152 205.618 91.6529 204.501 91.3737C202.881 90.8152 202.881 88.749 201.876 87.0736C201.15 85.6216 200.201 84.1697 199.084 82.9411L198.916 82.7736C184.006 66.8019 141.955 73.615 149.661 100.979C150.164 102.487 150.89 103.939 152.007 105C155.692 108.239 166.024 116.671 171.999 120.301C180.376 124.936 188.529 124.378 195.622 133.704C197.911 136.329 198.246 140.35 199.81 143.309C200.48 144.426 202.155 144.873 203.775 144.761C208.298 144.259 209.192 138.842 212.375 136.385C217.736 131.414 223.265 125.383 229.519 121.418C242.029 115.275 271.18 110.305 262.133 89.3074ZM256.716 98.1309C252.974 107.066 236.612 110.919 227.23 115.052C222.706 117.174 216.843 123.987 210.42 129.125C207.628 131.191 202.435 136.105 200.983 131.303C194.393 115.61 167.643 114.996 157.814 99.3595C151.56 90.8711 157.814 84.784 166.359 82.4943C171.887 81.3216 184.341 80.4839 189.702 82.606H189.814C193.388 85.2866 202.323 99.0803 201.988 105.167C201.932 105.949 201.765 106.563 202.826 106.619C203.998 106.619 207.461 106.899 208.41 106.284C208.969 105.838 208.913 105 208.968 104.33C209.136 98.6335 212.487 93.5516 217.234 89.7542C225.889 83.1086 239.013 78.9203 247.557 84.8398C250.74 86.8502 253.812 88.2464 255.711 90.2009C257.33 92.4347 257.721 95.7854 256.716 98.1309Z" fill="#1B1B1B"/>
<path d="M256.706 98.139C252.965 107.074 236.602 110.928 227.22 115.06C222.697 117.182 216.833 123.995 210.411 129.133C207.619 131.199 202.425 136.114 200.973 131.311C194.383 115.619 167.634 115.004 157.805 99.3676C151.55 90.8792 157.805 84.7921 166.349 82.5025C171.878 81.3297 184.331 80.4921 189.692 82.6142H189.804C193.378 85.2947 202.313 99.0884 201.978 105.176C201.922 105.957 201.755 106.572 202.816 106.627C203.989 106.627 207.451 106.907 208.4 106.292C208.959 105.846 208.903 105.008 208.959 104.338C209.126 98.6417 212.477 93.5598 217.224 89.7623C225.88 83.1168 239.003 78.9284 247.548 84.848C250.731 86.8584 253.802 88.2545 255.701 90.2091C257.32 92.4429 257.711 95.7936 256.706 98.139Z" fill="#F9E1CF"/>
<path d="M160.764 136.229C140.995 143.544 108.884 110.093 117.596 88.9281C118.266 87.0293 119.55 86.6943 121.617 86.3592C122.789 86.1358 123.683 85.9683 123.906 86.3592V86.4709C118.657 103.001 131.222 120.09 145.686 127.573C149.818 129.639 156.408 130.477 160.485 132.766C162.886 134.051 162.998 135.391 160.764 136.285V136.229Z" fill="#1B1B1B"/>
<path d="M289.926 98.4255C289.424 117.86 267.924 137.629 249.048 138.69L248.936 138.578C248.322 137.852 248.769 136.679 248.657 135.116C248.769 132.826 248.154 131.151 250.779 131.318C262.953 130.369 276.97 118.474 281.27 107.64C282.667 104.122 281.996 99.3748 283.393 95.9683C283.951 94.5163 284.956 93.3994 286.464 93.5111C288.754 93.902 290.15 96.2475 289.926 98.4255Z" fill="#1B1B1B"/>
<path d="M9.59418 209.557C-0.904665 161.084 -25.5324 47.2162 90.9601 13.9326C124.411 4.66236 160.99 0.0272217 200.025 0.0272217C228.115 0.0272217 256.485 2.42856 284.407 7.23122C312.441 12.2573 379.288 24.1522 402.631 75.1945C403.804 75.0269 404.92 74.8594 406.037 74.7477C409.723 74.1334 413.52 73.8542 417.206 73.8542C464.228 73.8542 498.349 118.754 499.857 159.185C500.75 175.548 497.455 192.469 490.307 208.105C471.711 247.085 426.756 269.647 408.271 277.577C402.575 279.866 397.214 281.821 391.797 283.775C384.369 286.456 377.389 288.969 371.19 291.873C362.255 296.005 356.894 299.97 354.381 304.382C353.766 305.499 352.985 306.616 352.203 307.677C327.184 339.844 286.027 359.613 230.014 366.482C220.13 367.599 210.245 368.101 200.416 368.101C170.986 368.101 115.364 363.187 73.9834 330.294C30.8152 296.452 18.0826 250.268 9.59418 209.557Z" fill="#FFFDFB"/>
<path d="M409.943 102.382C401.398 103.387 392.91 106.123 384.701 109.474C384.142 109.642 383.36 109.977 382.914 109.697L382.746 109.586C379.228 56.9798 323.83 42.6276 279.656 34.7535C221.633 24.7573 156.016 24.8689 98.6071 40.7847C16.2358 64.2955 21.9319 134.604 36.8984 203.852C45.5543 245.177 57.2259 281.7 91.3472 308.449C125.915 335.925 181.09 343.799 226.604 338.773C265.807 333.971 306.071 321.461 330.14 290.523C336.506 279.354 347.284 272.15 359.459 266.51C371.521 260.925 384.98 256.849 397.266 251.879C422.34 241.156 452.999 221.499 464.894 196.536C470.088 185.144 472.656 172.802 471.93 160.405C470.981 129.522 442.779 96.9089 409.943 102.382ZM380.68 156.663C395.255 146.89 422.452 141.92 427.813 162.918C436.804 192.795 396.428 221.331 369.567 223.063L369.455 222.951C368.059 201.73 376.938 180.732 378.781 159.567C379.004 158.282 379.619 157.333 380.68 156.663ZM305.401 47.542C341.197 57.0915 392.184 79.2619 360.966 118.856L360.799 119.079C344.269 139.742 318.58 151.19 293.282 157.277C229.787 170.568 89.4484 168.279 41.0867 118.465C38.7412 115.449 38.127 111.764 38.3504 107.464C49.296 17.2182 241.123 31.0119 305.401 47.542ZM89.3926 298.397L89.225 298.174C50.5803 265.281 47.4531 213.457 37.7919 166.938C34.9997 154.094 32.4308 140.747 35.3347 127.624C35.4464 127.065 35.6699 126.339 35.7816 125.837C35.9491 125.446 36.0607 125.222 36.2283 125.278C39.8582 127.177 71.8573 145.382 83.473 151.86C97.0992 156.328 111.06 159.734 124.854 162.583C143.283 166.268 161.879 168.67 180.587 169.954C249.109 173.64 331.201 174.031 375.039 112.21C376.101 110.758 376.659 110.591 376.826 112.266C377.664 129.913 371.856 147.002 370.125 164.425C365.937 195.028 364.206 221.555 350.97 248.64C308.863 341.677 164.727 360.664 89.3926 298.397ZM411.674 238.364C408.714 240.207 407.43 240.207 401.398 242.832C390.397 247.355 362.083 258.859 352.199 262.88C353.372 260.199 363.759 238.308 365.825 233.729C366.104 233.17 366.328 232.891 367.109 232.5C371.242 230.546 375.821 229.15 380.289 227.865C386.432 226.022 392.686 224.403 398.494 221.834C406.927 217.813 414.633 210.777 421.223 204.243C428.818 196.257 434.347 185.982 434.905 174.757C437.139 145.829 418.822 137.285 396.205 142.534C391.514 143.539 386.432 145.438 381.685 147.504C380.959 147.728 380.512 147.951 380.456 147.281C380.791 143.484 382.746 121.983 383.081 118.577C383.416 117.516 384.701 117.125 385.706 116.51C417.147 99.8687 453.446 111.652 463.274 147.56C476.007 189.221 443.114 218.427 411.674 238.364Z" fill="#1B1B1B"/>
<path d="M305.412 47.5405C241.134 31.0104 49.3067 17.2167 38.3611 107.462C38.1377 111.762 38.752 115.448 41.0975 118.464C89.4592 168.277 229.797 170.567 293.293 157.276C318.591 151.189 344.28 139.74 360.81 119.078L360.977 118.854C392.194 79.2604 341.208 57.09 305.412 47.5405ZM347.909 122.484L347.742 122.708C338.36 133.988 318.479 140.411 302.172 144.99C238.453 162.693 130.226 167.049 72.0356 129.633C63.1004 124.216 54.277 112.879 56.2316 102.604C56.8459 95.7347 63.4355 87.8047 70.807 83.3929C88.2865 72.3915 122.128 58.8211 146.365 53.3483C200.814 43.6313 294.522 54.0743 342.66 83.2254C359.581 93.6684 361.815 105.898 347.909 122.484Z" fill="#FF877C"/>
<path d="M411.681 238.361C408.721 240.204 407.437 240.204 401.405 242.829C390.404 247.352 362.091 258.856 352.206 262.877C353.379 260.196 363.766 238.305 365.832 233.726C366.111 233.167 366.335 232.888 367.117 232.497C371.249 230.543 375.828 229.147 380.296 227.862C386.439 226.019 392.694 224.4 398.501 221.831C406.934 217.81 414.641 210.774 421.23 204.24C428.825 196.254 434.354 185.978 434.912 174.754C437.146 145.826 418.829 137.282 396.212 142.531C391.521 143.536 386.439 145.435 381.692 147.501C380.966 147.725 380.519 147.948 380.464 147.278C380.799 143.48 382.753 121.98 383.088 118.574C383.423 117.513 384.708 117.122 385.713 116.507C417.154 99.8656 453.453 111.649 463.282 147.557C476.014 189.217 443.122 218.424 411.681 238.361Z" fill="#FF877C"/>
<path d="M370.128 164.421C365.94 195.024 364.209 221.551 350.974 248.636C308.866 341.673 164.731 360.66 89.3957 298.393L89.2282 298.17C50.5835 265.277 47.4562 213.453 37.7951 166.934C35.0028 154.09 32.4339 140.743 35.3379 127.62C35.4496 127.061 35.673 126.335 35.7847 125.833C35.9523 125.442 36.0639 125.218 36.2314 125.274C39.8613 127.173 71.8604 145.378 83.4762 151.856C97.1023 156.324 111.064 159.73 124.857 162.579C143.286 166.264 161.883 168.666 180.591 169.95C249.112 173.636 331.204 174.027 375.043 112.206C376.104 110.754 376.662 110.587 376.83 112.262C377.667 129.909 371.859 146.998 370.128 164.421Z" fill="#FF877C"/>
<path d="M342.646 83.2491C294.508 54.0981 200.8 43.655 146.351 53.3721C122.115 58.8449 88.2726 72.4152 70.7932 83.4166C63.4217 87.8284 56.832 95.7584 56.2177 102.627C54.2632 112.903 63.0866 124.239 72.0218 129.656C130.212 167.072 238.44 162.716 302.159 145.014C318.465 140.434 338.346 134.012 347.728 122.731L347.896 122.508C361.801 105.922 359.567 93.6921 342.646 83.2491ZM329.188 128.539C260.275 158.249 133.116 163.554 70.0672 118.599C62.193 111.395 59.4567 102.906 67.3867 94.3622C69.5647 92.0167 72.4126 89.8388 74.9257 88.2193C83.9725 82.7465 104.691 74.0347 117.87 69.1762C185.052 45.4979 283.451 57.5046 343.931 92.5752L344.154 92.7427C358.73 104.694 341.641 123.513 329.188 128.539Z" fill="#1B1B1B"/>
<path d="M344.17 92.7262L343.947 92.5586C283.466 57.488 185.068 45.4814 117.886 69.1596C104.707 74.0181 83.9884 82.7299 74.9415 88.2027C72.4285 89.8222 69.5805 92.0002 67.4025 94.3456C59.4726 102.89 62.2089 111.378 70.083 118.582C133.132 163.538 260.291 158.232 329.203 128.523C341.657 123.497 358.745 104.677 344.17 92.7262ZM160.775 136.229C141.006 143.545 108.895 110.094 117.607 88.9287C118.277 87.03 119.562 86.6949 121.628 86.3598C122.801 86.1364 123.694 85.9689 123.918 86.3598V86.4715C118.668 103.002 131.233 120.09 145.697 127.573C149.83 129.64 156.419 130.477 160.496 132.767C162.897 134.051 163.009 135.392 160.775 136.285V136.229ZM212.376 136.397C209.193 138.854 208.299 144.271 203.776 144.774C202.156 144.885 200.481 144.439 199.811 143.322C198.247 140.362 197.912 136.341 195.622 133.716C188.53 124.39 180.377 124.949 172 120.314C166.025 116.684 155.693 108.251 152.008 105.012C150.891 103.951 150.165 102.499 149.662 100.991C141.955 73.6272 184.007 66.8141 198.917 82.7858L199.085 82.9533C200.202 84.1819 201.151 85.6338 201.877 87.0858C202.882 88.7612 202.882 90.8274 204.502 91.3859C205.619 91.6651 206.68 90.8274 207.35 89.9898C219.524 73.4597 253.589 68.4336 262.134 89.3196C271.181 110.317 242.03 115.287 229.52 121.43C223.266 125.395 217.737 131.427 212.376 136.397ZM249.066 138.687L248.954 138.575C248.34 137.849 248.787 136.676 248.675 135.112C248.787 132.823 248.173 131.147 250.797 131.315C262.971 130.366 276.988 118.471 281.289 107.637C282.685 104.119 282.015 99.3717 283.411 95.9652C283.969 94.5132 284.974 93.3963 286.482 93.508C288.772 93.8989 290.168 96.2444 289.944 98.4223C289.442 117.856 267.942 137.625 249.066 138.687Z" fill="#974203"/>
<path d="M262.133 89.3074C253.589 68.4214 219.523 73.4475 207.349 89.9776C206.679 90.8152 205.618 91.6529 204.501 91.3737C202.881 90.8152 202.881 88.749 201.876 87.0736C201.15 85.6216 200.201 84.1697 199.084 82.9411L198.916 82.7736C184.006 66.8019 141.955 73.615 149.661 100.979C150.164 102.487 150.89 103.939 152.007 105C155.692 108.239 166.024 116.671 171.999 120.301C180.376 124.936 188.529 124.378 195.622 133.704C197.911 136.329 198.246 140.35 199.81 143.309C200.48 144.426 202.155 144.873 203.775 144.761C208.298 144.259 209.192 138.842 212.375 136.385C217.736 131.414 223.265 125.383 229.519 121.418C242.029 115.275 271.18 110.305 262.133 89.3074ZM256.716 98.1309C252.974 107.066 236.612 110.919 227.23 115.052C222.706 117.174 216.843 123.987 210.42 129.125C207.628 131.191 202.435 136.105 200.983 131.303C194.393 115.61 167.643 114.996 157.814 99.3595C151.56 90.8711 157.814 84.784 166.359 82.4943C171.887 81.3216 184.341 80.4839 189.702 82.606H189.814C193.388 85.2866 202.323 99.0803 201.988 105.167C201.932 105.949 201.765 106.563 202.826 106.619C203.998 106.619 207.461 106.899 208.41 106.284C208.969 105.838 208.913 105 208.968 104.33C209.136 98.6335 212.487 93.5516 217.234 89.7542C225.889 83.1086 239.013 78.9203 247.557 84.8398C250.74 86.8502 253.812 88.2464 255.711 90.2009C257.33 92.4347 257.721 95.7854 256.716 98.1309Z" fill="#1B1B1B"/>
<path d="M256.706 98.139C252.965 107.074 236.602 110.928 227.22 115.06C222.697 117.182 216.833 123.995 210.411 129.133C207.619 131.199 202.425 136.114 200.973 131.311C194.383 115.619 167.634 115.004 157.805 99.3676C151.55 90.8792 157.805 84.7921 166.349 82.5025C171.878 81.3297 184.331 80.4921 189.692 82.6142H189.804C193.378 85.2947 202.313 99.0884 201.978 105.176C201.922 105.957 201.755 106.572 202.816 106.627C203.989 106.627 207.451 106.907 208.4 106.292C208.959 105.846 208.903 105.008 208.959 104.338C209.126 98.6417 212.477 93.5598 217.224 89.7623C225.88 83.1168 239.003 78.9284 247.548 84.848C250.731 86.8584 253.802 88.2545 255.701 90.2091C257.32 92.4429 257.711 95.7936 256.706 98.139Z" fill="#974203"/>
<path d="M160.764 136.229C140.995 143.544 108.884 110.093 117.596 88.9281C118.266 87.0293 119.55 86.6943 121.617 86.3592C122.789 86.1358 123.683 85.9683 123.906 86.3592V86.4709C118.657 103.001 131.222 120.09 145.686 127.573C149.818 129.639 156.408 130.477 160.485 132.766C162.886 134.051 162.998 135.391 160.764 136.285V136.229Z" fill="#1B1B1B"/>
<path d="M289.926 98.4255C289.424 117.86 267.924 137.629 249.048 138.69L248.936 138.578C248.322 137.852 248.769 136.679 248.657 135.116C248.769 132.826 248.154 131.151 250.779 131.318C262.953 130.369 276.97 118.474 281.27 107.64C282.667 104.122 281.996 99.3748 283.393 95.9683C283.951 94.5163 284.956 93.3994 286.464 93.5111C288.754 93.902 290.15 96.2475 289.926 98.4255Z" fill="#1B1B1B"/>
</svg>
