<svg width="290" height="213" viewBox="0 0 290 213" fill="none" xmlns="http://www.w3.org/2000/svg">
<path d="M237.447 59.0985C232.508 59.6787 227.602 61.258 222.857 63.1923C222.534 63.2893 222.082 63.4826 221.824 63.321L221.727 63.2569C219.694 32.8908 187.674 24.6062 162.141 20.061C128.604 14.2908 90.6771 14.3552 57.4948 23.5424C9.88414 37.1136 13.1765 77.6982 21.8271 117.671C26.8302 141.525 33.5764 162.607 53.2985 178.048C73.2787 193.908 105.17 198.453 131.477 195.552C154.136 192.78 177.409 185.559 191.321 167.7C195 161.253 201.23 157.095 208.267 153.839C215.239 150.615 223.018 148.262 230.12 145.394C244.612 139.204 262.333 127.857 269.209 113.448C272.211 106.872 273.695 99.7475 273.275 92.5915C272.727 74.7647 256.426 55.9393 237.447 59.0985ZM220.533 90.4315C228.957 84.7901 244.677 81.9213 247.776 94.0421C252.973 111.288 229.635 127.76 214.11 128.76L214.045 128.695C213.238 116.446 218.37 104.325 219.435 92.1078C219.564 91.366 219.92 90.8182 220.533 90.4315ZM177.022 27.4429C197.712 32.9552 227.182 45.7528 209.138 68.6079L209.042 68.7366C199.487 80.6641 184.639 87.2723 170.017 90.7859C133.317 98.4579 52.201 97.1366 24.248 68.3822C22.8923 66.6413 22.5373 64.5142 22.6664 62.032C28.9929 9.93895 139.869 17.9012 177.022 27.4429ZM52.1688 172.245L52.0719 172.117C29.7353 153.13 27.9277 123.215 22.3436 96.3626C20.7297 88.9486 19.2449 81.2442 20.9233 73.6691C20.9879 73.3464 21.1171 72.9274 21.1816 72.6376C21.2784 72.4119 21.3429 72.2826 21.4398 72.3149C23.5379 73.4111 42.0334 83.9197 48.7472 87.659C56.6232 90.2381 64.6925 92.2042 72.6655 93.8487C83.3174 95.9758 94.0659 97.3623 104.879 98.1035C144.485 100.231 191.934 100.457 217.272 64.7716C217.886 63.9335 218.209 63.8371 218.305 64.8039C218.79 74.9904 215.433 84.8548 214.432 94.912C212.011 112.577 211.011 127.889 203.36 143.524C179.023 197.228 95.712 208.188 52.1688 172.245ZM238.447 137.592C236.737 138.656 235.994 138.656 232.508 140.171C226.149 142.782 209.784 149.423 204.071 151.744C204.749 150.196 210.753 137.56 211.947 134.917C212.108 134.594 212.237 134.433 212.689 134.207C215.078 133.079 217.724 132.274 220.307 131.532C223.858 130.468 227.472 129.533 230.829 128.051C235.704 125.729 240.158 121.668 243.967 117.896C248.357 113.287 251.552 107.355 251.875 100.876C253.166 84.1777 242.579 79.2458 229.506 82.2757C226.795 82.8558 223.858 83.952 221.114 85.1446C220.694 85.2739 220.436 85.4026 220.403 85.0159C220.597 82.8241 221.727 70.4129 221.921 68.4469C222.114 67.8344 222.857 67.6087 223.438 67.2537C241.611 57.6478 262.592 64.4495 268.272 85.1769C275.632 109.225 256.62 126.084 238.447 137.592Z" fill="#1B1B1B"/>
<path d="M177.029 27.442C139.876 17.9003 28.9997 9.93806 22.6732 62.0309C22.544 64.513 22.8991 66.6407 24.2548 68.3816C52.2079 97.1355 133.323 98.4573 170.024 90.7853C184.646 87.2717 199.494 80.6629 209.049 68.7361L209.145 68.6067C227.189 45.7519 197.719 32.9544 177.029 27.442ZM201.592 70.7021L201.495 70.8314C196.073 77.3426 184.581 81.0502 175.156 83.6934C138.326 93.9122 75.7711 96.4266 42.137 74.8288C36.9725 71.7019 31.8725 65.1578 33.0023 59.2267C33.3574 55.2615 37.1662 50.684 41.4269 48.1373C51.53 41.7869 71.0904 33.9536 85.0994 30.7945C116.571 25.1855 170.734 31.2136 198.558 48.0406C208.338 54.0687 209.63 61.1281 201.592 70.7021Z" fill="#FF877C"/>
<path d="M238.452 137.59C236.741 138.654 235.999 138.654 232.512 140.17C226.154 142.78 209.789 149.421 204.075 151.742C204.753 150.194 210.757 137.558 211.951 134.915C212.112 134.592 212.242 134.431 212.694 134.206C215.082 133.078 217.729 132.272 220.311 131.53C223.862 130.466 227.477 129.532 230.834 128.049C235.708 125.728 240.163 121.666 243.971 117.895C248.361 113.285 251.557 107.353 251.879 100.874C253.171 84.176 242.583 79.2441 229.511 82.274C226.799 82.8541 223.862 83.9503 221.118 85.1428C220.698 85.2721 220.44 85.4009 220.408 85.0141C220.602 82.8218 221.731 70.4112 221.925 68.4451C222.119 67.8327 222.861 67.607 223.442 67.252C241.615 57.646 262.596 64.4478 268.277 85.1752C275.636 109.223 256.625 126.082 238.452 137.59Z" fill="#FF877C"/>
<path d="M214.434 94.9097C212.013 112.575 211.012 127.887 203.363 143.522C179.024 197.226 95.7142 208.186 52.1704 172.243L52.0736 172.114C29.737 153.127 27.9294 123.213 22.3453 96.3603C20.7313 88.9463 19.2465 81.2419 20.925 73.6668C20.9896 73.3442 21.1187 72.9251 21.1832 72.6353C21.2801 72.4096 21.3446 72.2803 21.4414 72.3126C23.5395 73.4088 42.035 83.9174 48.7489 87.6567C56.6248 90.2358 64.6947 92.2019 72.667 93.8464C83.319 95.9735 94.0681 97.3601 104.881 98.1012C144.486 100.229 191.936 100.455 217.275 64.7693C217.888 63.9312 218.21 63.8348 218.307 64.8017C218.791 74.9881 215.434 84.8525 214.434 94.9097Z" fill="#FF877C"/>
<path d="M198.549 48.0543C170.725 31.2274 116.562 25.1992 85.0906 30.8083C71.0822 33.9674 51.5213 41.8006 41.4182 48.151C37.1575 50.6977 33.3486 55.2752 32.9935 59.24C31.8638 65.1716 36.9638 71.7152 42.1283 74.8421C75.7622 96.4399 138.318 93.9255 175.148 83.7073C184.572 81.0635 196.064 77.3565 201.487 70.8447L201.584 70.716C209.621 61.142 208.329 54.0824 198.549 48.0543ZM190.77 74.1973C150.939 91.347 77.4408 94.4092 40.9986 68.4596C36.4473 64.3012 34.8657 59.401 39.4492 54.4692C40.7081 53.1153 42.3542 51.8582 43.8068 50.9233C49.0358 47.7642 61.0111 42.7355 68.6286 39.931C107.46 26.263 164.334 33.1937 199.292 53.4377L199.421 53.5344C207.846 60.4331 197.968 71.2961 190.77 74.1973Z" fill="#1B1B1B"/>
<path d="M199.43 53.5249L199.301 53.4282C164.343 33.1842 107.469 26.2535 68.638 39.9214C61.0205 42.7259 49.0452 47.7547 43.8161 50.9138C42.3635 51.8486 40.7174 53.1058 39.4585 54.4597C34.875 59.3918 36.4566 64.2914 41.0078 68.4498C77.4502 94.4 150.948 91.3372 190.779 74.1881C197.978 71.2869 207.855 60.4233 199.43 53.5249ZM93.4278 78.6363C82.0013 82.8593 63.4412 63.5502 68.4767 51.3329C68.864 50.2369 69.6067 50.0434 70.8009 49.85C71.4788 49.721 71.995 49.6244 72.1245 49.85V49.9145C69.09 59.4565 76.3526 69.3203 84.7127 73.6397C87.1016 74.8329 90.9101 75.316 93.2666 76.6379C94.6543 77.3791 94.7191 78.1531 93.4278 78.6686V78.6363ZM123.253 78.7333C121.413 80.1515 120.897 83.2784 118.282 83.5688C117.346 83.6328 116.378 83.3754 115.991 82.7306C115.087 81.022 114.893 78.7009 113.569 77.1857C109.47 71.8024 104.758 72.1251 99.9159 69.4496C96.4623 67.3542 90.4904 62.4864 88.3605 60.6167C87.7149 60.0043 87.2952 59.1661 87.0045 58.2956C82.5499 42.5003 106.856 38.5675 115.474 47.7869L115.571 47.8836C116.217 48.5928 116.765 49.4309 117.185 50.2691C117.766 51.2362 117.766 52.4289 118.702 52.7512C119.348 52.9124 119.961 52.4288 120.348 51.9454C127.385 42.4036 147.074 39.5023 152.013 51.5585C157.242 63.6789 140.393 66.5478 133.162 70.0938C129.548 72.3825 126.352 75.8644 123.253 78.7333ZM144.46 80.0551L144.395 79.9905C144.04 79.5714 144.299 78.8943 144.234 77.9915C144.299 76.6702 143.944 75.7028 145.461 75.7997C152.497 75.2519 160.599 68.3857 163.085 62.132C163.892 60.1012 163.505 57.3609 164.311 55.3946C164.634 54.5564 165.215 53.9117 166.086 53.9762C167.41 54.2018 168.217 55.5557 168.088 56.8129C167.797 68.0307 155.37 79.4421 144.46 80.0551Z" fill="#F9E1CF"/>
<path d="M152.013 51.5514C147.074 39.4953 127.384 42.3965 120.348 51.9383C119.96 52.4218 119.347 52.9054 118.701 52.7442C117.765 52.4218 117.765 51.2291 117.184 50.262C116.765 49.4239 116.216 48.5858 115.57 47.8766L115.473 47.7799C106.855 38.5605 82.5499 42.4932 87.004 58.2887C87.2947 59.1592 87.7143 59.9973 88.36 60.6098C90.4899 62.4794 96.4618 67.3467 99.9153 69.4421C104.757 72.1175 109.47 71.7954 113.569 77.1787C114.892 78.694 115.086 81.0151 115.99 82.7231C116.377 83.3679 117.346 83.6259 118.282 83.5612C120.896 83.2715 121.413 80.1446 123.253 78.7263C126.351 75.8569 129.547 72.3756 133.162 70.0868C140.393 66.5409 157.242 63.672 152.013 51.5514ZM148.882 56.6447C146.719 61.8023 137.262 64.0264 131.839 66.4121C129.224 67.637 125.835 71.5697 122.123 74.5356C120.509 75.7282 117.507 78.5647 116.668 75.7928C112.859 66.7342 97.3976 66.3798 91.7164 57.3539C88.1016 52.4541 91.7164 48.9404 96.6554 47.6187C99.8506 46.9418 107.049 46.4582 110.148 47.6832H110.212C112.278 49.2305 117.443 57.1927 117.249 60.7062C117.217 61.1576 117.12 61.512 117.733 61.5443C118.411 61.5443 120.412 61.7059 120.961 61.3509C121.284 61.0935 121.252 60.6098 121.283 60.223C121.381 56.9348 123.317 54.0014 126.061 51.8094C131.064 47.9733 138.649 45.5556 143.588 48.9726C145.428 50.1331 147.203 50.939 148.301 52.0672C149.237 53.3566 149.463 55.2908 148.882 56.6447Z" fill="#1B1B1B"/>
<path d="M148.876 56.6493C146.714 61.8069 137.256 64.0316 131.833 66.4167C129.219 67.6416 125.829 71.5743 122.117 74.5402C120.504 75.7327 117.502 78.5698 116.662 75.7974C112.853 66.7394 97.3923 66.3844 91.7112 57.3585C88.0958 52.4587 91.7112 48.945 96.6496 47.6234C99.8454 46.9464 107.043 46.4629 110.142 47.6878H110.207C112.272 49.2351 117.437 57.1973 117.243 60.7113C117.211 61.1621 117.114 61.5171 117.728 61.5489C118.406 61.5489 120.407 61.7105 120.955 61.3555C121.278 61.0981 121.246 60.6143 121.278 60.2276C121.375 56.9395 123.312 54.006 126.055 51.814C131.059 47.978 138.644 45.5603 143.583 48.9773C145.422 50.1377 147.197 50.9436 148.295 52.0719C149.231 53.3613 149.457 55.2955 148.876 56.6493Z" fill="#F9E1CF"/>
<path d="M93.422 78.6362C81.9955 82.8587 63.4354 63.5496 68.4709 51.3325C68.8582 50.2364 69.6003 50.043 70.795 49.8496C71.4724 49.7206 71.9892 49.624 72.1181 49.8496V49.9141C69.0841 59.4558 76.3467 69.3202 84.7069 73.6397C87.0952 74.8322 90.9042 75.316 93.2607 76.6373C94.6485 77.379 94.7133 78.1525 93.422 78.6686V78.6362Z" fill="#1B1B1B"/>
<path d="M168.078 56.8147C167.788 68.033 155.361 79.4444 144.45 80.0568L144.385 79.9922C144.031 79.5731 144.289 78.896 144.224 77.9938C144.289 76.6719 143.933 75.705 145.451 75.8014C152.487 75.2537 160.589 68.3874 163.074 62.1337C163.882 60.1029 163.494 57.3627 164.302 55.3963C164.624 54.5582 165.205 53.9135 166.077 53.978C167.4 54.2036 168.207 55.5575 168.078 56.8147Z" fill="#1B1B1B"/>
<path d="M6.04544 120.964C-0.0228975 92.9834 -14.2577 27.2549 53.0749 8.04237C72.4096 2.69125 93.5522 0.015686 116.114 0.015686C132.35 0.015686 148.748 1.40182 164.887 4.17409C181.091 7.07532 219.728 13.9415 233.221 43.4049C233.899 43.3082 234.544 43.2115 235.189 43.147C237.32 42.7924 239.515 42.6313 241.645 42.6313C268.824 42.6313 288.546 68.549 289.417 91.8872C289.934 101.333 288.029 111.1 283.897 120.126C273.149 142.626 247.165 155.65 236.481 160.227C233.188 161.549 230.09 162.677 226.959 163.805C222.665 165.353 218.631 166.803 215.048 168.479C209.883 170.865 206.785 173.153 205.332 175.7C204.977 176.345 204.525 176.99 204.073 177.602C189.612 196.17 165.824 207.581 133.448 211.546C127.735 212.191 122.022 212.481 116.34 212.481C99.3299 212.481 67.1804 209.645 43.2624 190.657C18.3112 171.123 10.9517 144.464 6.04544 120.964Z" fill="#FFFDFB"/>
<path d="M237.447 59.0985C232.508 59.6787 227.602 61.258 222.857 63.1923C222.534 63.2893 222.082 63.4826 221.824 63.321L221.727 63.2569C219.694 32.8908 187.674 24.6062 162.141 20.061C128.604 14.2908 90.6771 14.3552 57.4948 23.5424C9.88414 37.1136 13.1765 77.6982 21.8271 117.671C26.8302 141.525 33.5764 162.607 53.2985 178.048C73.2787 193.908 105.17 198.453 131.477 195.552C154.136 192.78 177.409 185.559 191.321 167.7C195 161.253 201.23 157.095 208.267 153.839C215.239 150.615 223.018 148.262 230.12 145.394C244.612 139.204 262.333 127.857 269.209 113.448C272.211 106.872 273.695 99.7475 273.275 92.5915C272.727 74.7647 256.426 55.9393 237.447 59.0985ZM220.533 90.4315C228.957 84.7901 244.677 81.9213 247.776 94.0421C252.973 111.288 229.635 127.76 214.11 128.76L214.045 128.695C213.238 116.446 218.37 104.325 219.435 92.1078C219.564 91.366 219.92 90.8182 220.533 90.4315ZM177.022 27.4429C197.712 32.9552 227.182 45.7528 209.138 68.6079L209.042 68.7366C199.487 80.6641 184.639 87.2723 170.017 90.7859C133.317 98.4579 52.201 97.1366 24.248 68.3822C22.8923 66.6413 22.5373 64.5142 22.6664 62.032C28.9929 9.93895 139.869 17.9012 177.022 27.4429ZM52.1688 172.245L52.0719 172.117C29.7353 153.13 27.9277 123.215 22.3436 96.3626C20.7297 88.9486 19.2449 81.2442 20.9233 73.6691C20.9879 73.3464 21.1171 72.9274 21.1816 72.6376C21.2784 72.4119 21.3429 72.2826 21.4398 72.3149C23.5379 73.4111 42.0334 83.9197 48.7472 87.659C56.6232 90.2381 64.6925 92.2042 72.6655 93.8487C83.3174 95.9758 94.0659 97.3623 104.879 98.1035C144.485 100.231 191.934 100.457 217.272 64.7716C217.886 63.9335 218.209 63.8371 218.305 64.8039C218.79 74.9904 215.433 84.8548 214.432 94.912C212.011 112.577 211.011 127.889 203.36 143.524C179.023 197.228 95.712 208.188 52.1688 172.245ZM238.447 137.592C236.737 138.656 235.994 138.656 232.508 140.171C226.149 142.782 209.784 149.423 204.071 151.744C204.749 150.196 210.753 137.56 211.947 134.917C212.108 134.594 212.237 134.433 212.689 134.207C215.078 133.079 217.724 132.274 220.307 131.532C223.858 130.468 227.472 129.533 230.829 128.051C235.704 125.729 240.158 121.668 243.967 117.896C248.357 113.287 251.552 107.355 251.875 100.876C253.166 84.1777 242.579 79.2458 229.506 82.2757C226.795 82.8558 223.858 83.952 221.114 85.1446C220.694 85.2739 220.436 85.4026 220.403 85.0159C220.597 82.8241 221.727 70.4129 221.921 68.4469C222.114 67.8344 222.857 67.6087 223.438 67.2537C241.611 57.6478 262.592 64.4495 268.272 85.1769C275.632 109.225 256.62 126.084 238.447 137.592Z" fill="#1B1B1B"/>
<path d="M177.029 27.442C139.876 17.9003 28.9997 9.93806 22.6732 62.0309C22.544 64.513 22.8991 66.6407 24.2548 68.3816C52.2079 97.1355 133.323 98.4573 170.024 90.7853C184.646 87.2717 199.494 80.6629 209.049 68.7361L209.145 68.6067C227.189 45.7519 197.719 32.9544 177.029 27.442ZM201.592 70.7021L201.495 70.8314C196.073 77.3426 184.581 81.0502 175.156 83.6934C138.326 93.9122 75.7711 96.4266 42.137 74.8288C36.9725 71.7019 31.8725 65.1578 33.0023 59.2267C33.3574 55.2615 37.1662 50.684 41.4269 48.1373C51.53 41.7869 71.0904 33.9536 85.0994 30.7945C116.571 25.1855 170.734 31.2136 198.558 48.0406C208.338 54.0687 209.63 61.1281 201.592 70.7021Z" fill="#FF877C"/>
<path d="M238.452 137.59C236.741 138.654 235.999 138.654 232.512 140.17C226.154 142.78 209.789 149.421 204.075 151.742C204.753 150.194 210.757 137.558 211.951 134.915C212.112 134.592 212.242 134.431 212.694 134.206C215.082 133.078 217.729 132.272 220.311 131.53C223.862 130.466 227.477 129.532 230.834 128.049C235.708 125.728 240.163 121.666 243.971 117.895C248.361 113.285 251.557 107.353 251.879 100.874C253.171 84.176 242.583 79.2441 229.511 82.274C226.799 82.8541 223.862 83.9503 221.118 85.1428C220.698 85.2721 220.44 85.4009 220.408 85.0141C220.602 82.8218 221.731 70.4112 221.925 68.4451C222.119 67.8327 222.861 67.607 223.442 67.252C241.615 57.646 262.596 64.4478 268.277 85.1752C275.636 109.223 256.625 126.082 238.452 137.59Z" fill="#FF877C"/>
<path d="M214.434 94.9097C212.013 112.575 211.012 127.887 203.363 143.522C179.024 197.226 95.7142 208.186 52.1704 172.243L52.0736 172.114C29.737 153.127 27.9294 123.213 22.3453 96.3603C20.7313 88.9463 19.2465 81.2419 20.925 73.6668C20.9896 73.3442 21.1187 72.9251 21.1832 72.6353C21.2801 72.4096 21.3446 72.2803 21.4414 72.3126C23.5395 73.4088 42.035 83.9174 48.7489 87.6567C56.6248 90.2358 64.6947 92.2019 72.667 93.8464C83.319 95.9735 94.0681 97.3601 104.881 98.1012C144.486 100.229 191.936 100.455 217.275 64.7693C217.888 63.9312 218.21 63.8348 218.307 64.8017C218.791 74.9881 215.434 84.8525 214.434 94.9097Z" fill="#FF877C"/>
<path d="M198.549 48.0543C170.725 31.2274 116.562 25.1992 85.0906 30.8083C71.0822 33.9674 51.5213 41.8006 41.4182 48.151C37.1575 50.6977 33.3486 55.2752 32.9935 59.24C31.8638 65.1716 36.9638 71.7152 42.1283 74.8421C75.7622 96.4399 138.318 93.9255 175.148 83.7073C184.572 81.0635 196.064 77.3565 201.487 70.8447L201.584 70.716C209.621 61.142 208.329 54.0824 198.549 48.0543ZM190.77 74.1973C150.939 91.347 77.4408 94.4092 40.9986 68.4596C36.4473 64.3012 34.8657 59.401 39.4492 54.4692C40.7081 53.1153 42.3542 51.8582 43.8068 50.9233C49.0358 47.7642 61.0111 42.7355 68.6286 39.931C107.46 26.263 164.334 33.1937 199.292 53.4377L199.421 53.5344C207.846 60.4331 197.968 71.2961 190.77 74.1973Z" fill="#1B1B1B"/>
<path d="M199.43 53.5249L199.301 53.4282C164.343 33.1842 107.469 26.2535 68.638 39.9214C61.0205 42.7259 49.0452 47.7547 43.8161 50.9138C42.3635 51.8486 40.7174 53.1058 39.4585 54.4597C34.875 59.3918 36.4566 64.2914 41.0078 68.4498C77.4502 94.4 150.948 91.3372 190.779 74.1881C197.978 71.2869 207.855 60.4233 199.43 53.5249ZM93.4278 78.6363C82.0013 82.8593 63.4412 63.5502 68.4767 51.3329C68.864 50.2369 69.6067 50.0434 70.8009 49.85C71.4788 49.721 71.995 49.6244 72.1245 49.85V49.9145C69.09 59.4565 76.3526 69.3203 84.7127 73.6397C87.1016 74.8329 90.9101 75.316 93.2666 76.6379C94.6543 77.3791 94.7191 78.1531 93.4278 78.6686V78.6363ZM123.253 78.7333C121.413 80.1515 120.897 83.2784 118.282 83.5688C117.346 83.6328 116.378 83.3754 115.991 82.7306C115.087 81.022 114.893 78.7009 113.569 77.1857C109.47 71.8024 104.758 72.1251 99.9159 69.4496C96.4623 67.3542 90.4904 62.4864 88.3605 60.6167C87.7149 60.0043 87.2952 59.1661 87.0045 58.2956C82.5499 42.5003 106.856 38.5675 115.474 47.7869L115.571 47.8836C116.217 48.5928 116.765 49.4309 117.185 50.2691C117.766 51.2362 117.766 52.4289 118.702 52.7512C119.348 52.9124 119.961 52.4288 120.348 51.9454C127.385 42.4036 147.074 39.5023 152.013 51.5585C157.242 63.6789 140.393 66.5478 133.162 70.0938C129.548 72.3825 126.352 75.8644 123.253 78.7333ZM144.46 80.0551L144.395 79.9905C144.04 79.5714 144.299 78.8943 144.234 77.9915C144.299 76.6702 143.944 75.7028 145.461 75.7997C152.497 75.2519 160.599 68.3857 163.085 62.132C163.892 60.1012 163.505 57.3609 164.311 55.3946C164.634 54.5564 165.215 53.9117 166.086 53.9762C167.41 54.2018 168.217 55.5557 168.088 56.8129C167.797 68.0307 155.37 79.4421 144.46 80.0551Z" fill="#974203"/>
<path d="M152.013 51.5514C147.074 39.4953 127.384 42.3965 120.348 51.9383C119.96 52.4218 119.347 52.9054 118.701 52.7442C117.765 52.4218 117.765 51.2291 117.184 50.262C116.765 49.4239 116.216 48.5858 115.57 47.8766L115.473 47.7799C106.855 38.5605 82.5499 42.4932 87.004 58.2887C87.2947 59.1592 87.7143 59.9973 88.36 60.6098C90.4899 62.4794 96.4618 67.3467 99.9153 69.4421C104.757 72.1175 109.47 71.7954 113.569 77.1787C114.892 78.694 115.086 81.0151 115.99 82.7231C116.377 83.3679 117.346 83.6259 118.282 83.5612C120.896 83.2715 121.413 80.1446 123.253 78.7263C126.351 75.8569 129.547 72.3756 133.162 70.0868C140.393 66.5409 157.242 63.672 152.013 51.5514ZM148.882 56.6447C146.719 61.8023 137.262 64.0264 131.839 66.4121C129.224 67.637 125.835 71.5697 122.123 74.5356C120.509 75.7282 117.507 78.5647 116.668 75.7928C112.859 66.7342 97.3976 66.3798 91.7164 57.3539C88.1016 52.4541 91.7164 48.9404 96.6554 47.6187C99.8506 46.9418 107.049 46.4582 110.148 47.6832H110.212C112.278 49.2305 117.443 57.1927 117.249 60.7062C117.217 61.1576 117.12 61.512 117.733 61.5443C118.411 61.5443 120.412 61.7059 120.961 61.3509C121.284 61.0935 121.252 60.6098 121.283 60.223C121.381 56.9348 123.317 54.0014 126.061 51.8094C131.064 47.9733 138.649 45.5556 143.588 48.9726C145.428 50.1331 147.203 50.939 148.301 52.0672C149.237 53.3566 149.463 55.2908 148.882 56.6447Z" fill="#1B1B1B"/>
<path d="M148.876 56.6493C146.714 61.8069 137.256 64.0316 131.833 66.4167C129.219 67.6416 125.829 71.5743 122.117 74.5402C120.504 75.7327 117.502 78.5698 116.662 75.7974C112.853 66.7394 97.3923 66.3844 91.7112 57.3585C88.0958 52.4587 91.7112 48.945 96.6496 47.6234C99.8454 46.9464 107.043 46.4629 110.142 47.6878H110.207C112.272 49.2351 117.437 57.1973 117.243 60.7113C117.211 61.1621 117.114 61.5171 117.728 61.5489C118.406 61.5489 120.407 61.7105 120.955 61.3555C121.278 61.0981 121.246 60.6143 121.278 60.2276C121.375 56.9395 123.312 54.006 126.055 51.814C131.059 47.978 138.644 45.5603 143.583 48.9773C145.422 50.1377 147.197 50.9436 148.295 52.0719C149.231 53.3613 149.457 55.2955 148.876 56.6493Z" fill="#974203"/>
<path d="M93.422 78.6362C81.9955 82.8587 63.4354 63.5496 68.4709 51.3325C68.8582 50.2364 69.6003 50.043 70.795 49.8496C71.4724 49.7206 71.9892 49.624 72.1181 49.8496V49.9141C69.0841 59.4558 76.3467 69.3202 84.7069 73.6397C87.0952 74.8322 90.9042 75.316 93.2607 76.6373C94.6485 77.379 94.7133 78.1525 93.422 78.6686V78.6362Z" fill="#1B1B1B"/>
<path d="M168.078 56.8147C167.788 68.033 155.361 79.4444 144.45 80.0568L144.385 79.9922C144.031 79.5731 144.289 78.896 144.224 77.9938C144.289 76.6719 143.933 75.705 145.451 75.8014C152.487 75.2537 160.589 68.3874 163.074 62.1337C163.882 60.1029 163.494 57.3627 164.302 55.3963C164.624 54.5582 165.205 53.9135 166.077 53.978C167.4 54.2036 168.207 55.5575 168.078 56.8147Z" fill="#1B1B1B"/>
</svg>
