<svg width="12" height="12" viewBox="0 0 12 12" fill="none" xmlns="http://www.w3.org/2000/svg">
<g clip-path="url(#clip0_160_3034)">
<path fill-rule="evenodd" clip-rule="evenodd" d="M2.5 11C2.5 10.7239 2.72386 10.5 3 10.5H9C9.27615 10.5 9.5 10.7239 9.5 11C9.5 11.2762 9.27615 11.5 9 11.5H3C2.72386 11.5 2.5 11.2762 2.5 11Z" fill="#FF4427"/>
<path fill-rule="evenodd" clip-rule="evenodd" d="M6.32685 0.81615C6.26045 0.698075 6.1355 0.625 6 0.625C5.86455 0.625 5.7396 0.698075 5.6732 0.81615L3.62978 4.44886L1.22059 2.69672C1.09203 2.60322 0.918484 2.60094 0.787509 2.69103C0.656534 2.78112 0.596589 2.94399 0.637919 3.09749L2.38792 9.5975C2.432 9.7612 2.58046 9.875 2.75002 9.875H9.25C9.4196 9.875 9.56805 9.7612 9.61215 9.5975L11.3621 3.09749C11.4034 2.94399 11.3435 2.78112 11.2125 2.69103C11.0815 2.60094 10.908 2.60322 10.7794 2.69672L8.37025 4.44886L6.32685 0.81615ZM6 6.75C5.5858 6.75 5.25 7.0858 5.25 7.5C5.25 7.9142 5.5858 8.25 6 8.25H6.005C6.4192 8.25 6.755 7.9142 6.755 7.5C6.755 7.0858 6.4192 6.75 6.005 6.75H6Z" fill="#FF4427"/>
</g>
<defs>
<clipPath id="clip0_160_3034">
<rect width="12" height="12" fill="white"/>
</clipPath>
</defs>
</svg>
