<svg width="48" height="49" viewBox="0 0 48 49" fill="none" xmlns="http://www.w3.org/2000/svg">
<path fill-rule="evenodd" clip-rule="evenodd" d="M38 30.5C39.1046 30.5 40 31.3954 40 32.5V36.5H44C45.1046 36.5 46 37.3954 46 38.5C46 39.6046 45.1046 40.5 44 40.5H40V44.5C40 45.6046 39.1046 46.5 38 46.5C36.8954 46.5 36 45.6046 36 44.5V40.5H32C30.8954 40.5 30 39.6046 30 38.5C30 37.3954 30.8954 36.5 32 36.5H36V32.5C36 31.3954 36.8954 30.5 38 30.5Z" fill="#7E7A76"/>
<path fill-rule="evenodd" clip-rule="evenodd" d="M6.87195 10.8681C6 12.5794 6 14.8196 6 19.3V29.7C6 30.126 6.46731 30.3862 6.82962 30.1622L10.7 27.769L10.8573 27.6715C11.5167 27.262 12.1799 26.8503 12.927 26.6581C13.5792 26.4903 14.2586 26.456 14.9243 26.5572C15.687 26.6732 16.3883 27.0161 17.0856 27.3571L17.2519 27.4383L18.3086 27.9525C19.3674 28.4678 19.4936 28.5021 19.578 28.5132C19.7204 28.532 19.8651 28.5198 20.0024 28.4776C20.0837 28.4527 20.2026 28.3978 21.1609 27.7136L26.1722 24.1356L26.3584 24.0022C27.1269 23.4509 27.8981 22.8976 28.788 22.6601C29.5632 22.4533 30.3767 22.436 31.1599 22.6097C32.0591 22.8092 32.8531 23.3291 33.6444 23.8473L33.8361 23.9727L37.4842 26.35C37.6373 26.4498 37.8172 26.5 38 26.5H40.4C40.9601 26.5 41.2401 26.5 41.454 26.391C41.6422 26.2951 41.7951 26.1422 41.891 25.954C42 25.7401 42 25.4601 42 24.9V19.3C42 14.8196 42 12.5794 41.1281 10.8681C40.3611 9.36278 39.1372 8.13893 37.6319 7.37195C35.9206 6.5 33.6804 6.5 29.2 6.5H18.8C14.3196 6.5 12.0794 6.5 10.3681 7.37195C8.86278 8.13893 7.63893 9.36278 6.87195 10.8681ZM18 22.5C20.2091 22.5 22 20.7091 22 18.5C22 16.2909 20.2091 14.5 18 14.5C15.7909 14.5 14 16.2909 14 18.5C14 20.7091 15.7909 22.5 18 22.5Z" fill="#7E7A76"/>
<path d="M31.6522 27.3239C32.0143 27.5599 31.9897 28.1024 31.6237 28.3324C28.2454 30.4554 26 34.2155 26 38.5V40.9C26 41.4601 26 41.7401 25.891 41.954C25.7951 42.1422 25.6422 42.2951 25.454 42.391C25.2401 42.5 24.9601 42.5 24.4 42.5H18.8C14.3196 42.5 12.0794 42.5 10.3681 41.6281C8.86278 40.8611 7.63893 39.6372 6.87195 38.1319C6.59449 37.5874 6.40532 36.9893 6.27634 36.2825C6.21872 35.9667 6.18991 35.8088 6.2222 35.6301C6.2488 35.4829 6.32343 35.315 6.4149 35.1966C6.52591 35.0529 6.68076 34.9572 6.99045 34.7657L12.8037 31.1712C13.7337 30.5961 13.8459 30.5519 13.9235 30.5319C14.054 30.4984 14.1898 30.4915 14.323 30.5118C14.4023 30.5238 14.5183 30.5565 15.5015 31.035L16.5582 31.5492L16.7377 31.6369C17.4866 32.0032 18.2392 32.3714 19.0554 32.4789C19.7673 32.5727 20.4911 32.5121 21.1775 32.3012C21.9644 32.0593 22.6453 31.5711 23.3228 31.0853L23.4852 30.969L28.4965 27.391C29.5895 26.6105 29.7284 26.5491 29.8194 26.5249C29.9744 26.4835 30.1371 26.4801 30.2937 26.5148C30.3856 26.5352 30.527 26.5906 31.6522 27.3239Z" fill="#7E7A76"/>
</svg>
