<svg width="24" height="22" viewBox="0 0 24 22" fill="none" xmlns="http://www.w3.org/2000/svg">
<path d="M21.4823 18.6255L17.682 15.0024C17.6762 14.9966 17.6703 14.991 17.6643 14.9855L8.28984 6.04837C8.28349 6.04208 8.27707 6.03596 8.27051 6.02995L4.46358 2.4006C4.18193 2.13209 3.72537 2.13209 3.44376 2.4006C3.16214 2.66911 3.16211 3.10438 3.44376 3.37286L6.6669 6.44565C5.024 7.67882 4.00547 9.05586 3.70665 9.48896C3.07369 10.4064 3.07369 11.592 3.70665 12.5094C4.09291 13.0692 5.18197 14.5065 6.94834 15.7581C8.73678 17.0254 10.5975 17.6679 12.4788 17.6679C14.0295 17.6679 15.5699 17.2281 17.0656 16.3593L20.4625 19.5978C20.6033 19.732 20.7879 19.7992 20.9724 19.7992C21.157 19.7992 21.3416 19.732 21.4823 19.5978C21.7639 19.3292 21.7639 18.894 21.4823 18.6255ZM10.1361 9.75303L11.1284 10.699C11.0241 11.1338 11.1496 11.6085 11.5048 11.9471C11.86 12.2858 12.3579 12.4053 12.814 12.3059L13.7705 13.2179C13.3758 13.4301 12.9286 13.5429 12.4631 13.5429C10.9918 13.5429 9.7949 12.4018 9.7949 10.9992C9.79486 10.5571 9.91356 10.13 10.1361 9.75303ZM12.4788 16.2929C8.97746 16.2929 6.07476 13.4397 4.91157 11.7537C4.59527 11.2953 4.59527 10.7029 4.91157 10.2445C5.18636 9.84626 6.14435 8.55211 7.69463 7.42547L9.09122 8.75692C8.61155 9.41068 8.35258 10.1886 8.35258 10.9992C8.35258 13.16 10.1965 14.9179 12.463 14.9179C13.3166 14.9179 14.1305 14.6715 14.8154 14.214L16.0113 15.3541C14.8425 15.9776 13.6576 16.2929 12.4788 16.2929Z" fill="#161312"/>
<path d="M21.2374 9.51339C21.2337 9.50765 21.2299 9.50191 21.226 9.49621C20.8431 8.93571 19.7627 7.49669 18.0042 6.24314C16.2216 4.97243 14.3625 4.32812 12.4785 4.32812C11.7614 4.32812 11.0345 4.42476 10.3181 4.61527C9.93444 4.71733 9.71024 5.09653 9.81722 5.46222C9.92424 5.82795 10.3219 6.04166 10.7056 5.93974C11.2959 5.78274 11.8924 5.70316 12.4785 5.70316C15.965 5.70316 18.8403 8.53495 20.0027 10.2251C20.0064 10.2308 20.0103 10.2366 20.0142 10.2422C20.1691 10.4668 20.251 10.7277 20.251 10.9969C20.251 11.266 20.1691 11.5269 20.0142 11.7515C19.6673 12.2542 19.2025 12.8057 18.7053 13.3044C18.4309 13.5796 18.4424 14.0147 18.7311 14.2763C18.8706 14.4028 19.0494 14.4655 19.2278 14.4655C19.4185 14.4655 19.6089 14.3939 19.7506 14.2517C20.4613 13.539 20.9415 12.9095 21.2192 12.507C21.5294 12.0575 21.6933 11.5353 21.6933 10.9968C21.6932 10.469 21.5357 9.95684 21.2374 9.51339Z" fill="#161312"/>
<path d="M16.4779 10.1579C16.139 8.68622 14.9245 7.51792 13.3837 7.18151C12.9955 7.09691 12.6087 7.32809 12.5198 7.69818C12.4309 8.06831 12.6736 8.43703 13.0618 8.5218C14.0614 8.74001 14.8493 9.49794 15.0692 10.4527C15.1431 10.7739 15.4416 10.9929 15.7729 10.9929C15.8241 10.9929 15.8761 10.9877 15.9282 10.9768C16.3172 10.8954 16.5633 10.5287 16.4779 10.1579Z" fill="#161312"/>
</svg>
